<svg height='100px' width='100px' fill="#000000" xmlns="http://www.w3.org/2000/svg"
  xmlns:xlink="http://www.w3.org/1999/xlink" version="1.1" x="0px" y="0px" viewBox="0 0 33 33"
  enable-background="new 0 0 33 33" xml:space="preserve"><polygon points="16.59,3.972 15.55,6.888 16.965,6.888 16.201,9.025 18.67,6.107 17.254,6.107 18.016,3.972 "></polygon><polygon points="7.578,10.394 8.549,12.443 8.23,8.634 7.229,9.636 6.26,7.585 5.252,8.593 6.578,11.394 "></polygon><polygon points="3.421,19.507 5.553,20.271 2.637,17.802 2.637,19.218 0.5,18.456 0.5,19.88 3.421,20.923 "></polygon><polygon points="29.582,20.435 27.447,19.671 30.365,22.14 30.365,20.724 32.5,21.485 32.5,20.062 29.582,19.019 "></polygon><polygon points="27.838,11.701 26.836,10.701 28.887,9.73 27.879,8.72 25.078,10.048 26.08,11.048 24.029,12.019 "></polygon><path d="M12.869,12.658c-1.194-0.717-4.053,0.795-3.121,2.869c0.883,0.473,2.863,1.968,3.302,5.054  c0.051,0.352-0.513,0.592-0.65-0.064c-0.54-2.527-1.917-3.716-2.784-4.24c-1.939,0.32-3.365,3.937-1.791,5.498  c0.545,0.014,1.295,0.162,2.201,0.682c0.26,0.031,2.072,0.057,3.148-0.445c0.615-0.287,0.845,0.436,0.225,0.678  c-0.801,0.316-1.732,0.441-2.326,0.488c0.326,0.262,0.525,0.41,1.018,0.93c0.492,0.521-0.055,0.963-0.513,0.498  c-1.696-1.723-3.049-2.109-3.783-2.121c-2.556,1.871,2.052,9.205,8.352,5.521v-10.24c-0.38-0.178-2.059-0.939-3.376-2.556  c-0.38-0.467,0.255-0.848,0.571-0.432c0.954,1.26,2.162,1.854,2.805,2.189v-5.15C15.136,9.917,12.356,11.414,12.869,12.658z"></path><path d="M16.859,11.816v16.189c1.537,0.898,2.975,1.145,4.23,0.971c-0.201-0.865-0.344-2.568-0.01-3.615  c0.189-0.6,0.816-0.33,0.689,0.186c-0.225,0.91-0.16,2.502,0.023,3.287c3.332-0.916,5.111-4.764,3.576-6.211  c-1.236,0.023-4.188,0.264-5.779,1.639c-0.516,0.447-1.045,0.031-0.519-0.488c1.394-1.385,4.462-1.807,5.958-1.859  c1.777-1.443,0.42-5.142-1.514-5.609c-0.373,0.172-0.98,0.422-1.676,0.611c-0.227,0.31-1.035,1.541-0.789,2.783  c0.109,0.557-0.566,0.727-0.682,0.211c-0.275-1.209,0.066-2.166,0.424-2.781c-0.246,0.033-0.492,0.057-0.74,0.057  c-0.463,0-0.83-0.063-1.336-0.23c-0.506-0.166-0.432-0.918,0.262-0.664c1.5,0.547,3.387-0.25,4.215-0.627  c1.123-2.141-1.834-3.738-3.055-3.006C20.65,11.414,17.871,9.917,16.859,11.816z"></path></svg>