<svg height='100px' width='100px'  fill="#000000" xmlns="http://www.w3.org/2000/svg" xmlns:xlink="http://www.w3.org/1999/xlink" version="1.1" x="0px" y="0px" viewBox="0 0 24 24" enable-background="new 0 0 24 24" xml:space="preserve"><g><g><circle cx="13.5" cy="12.5" r="1.5"></circle><circle cx="17.5" cy="12.5" r="1.5"></circle><path d="M21,7H6C5.45,7,5,7.45,5,8v9c0,0.55,0.45,1,1,1h7.59l3.7,3.71C17.48,21.9,17.74,22,18,22c0.13,0,0.26-0.02,0.38-0.08    C18.76,21.77,19,21.4,19,21v-3h2c0.55,0,1-0.45,1-1V8C22,7.45,21.55,7,21,7z M20,16h-2c-0.55,0-1,0.45-1,1v1.59l-2.29-2.3    C14.52,16.11,14.27,16,14,16H7V9h13V16z"></path><circle cx="9.5" cy="12.5" r="1.5"></circle><path d="M17,6h2V3c0-0.55-0.45-1-1-1H3C2.45,2,2,2.45,2,3v9c0,0.55,0.45,1,1,1h1V8c0-1.1,0.9-2,2-2H17z"></path></g></g></svg>