<svg height='100px' width='100px'  fill="#000000" xmlns:x="http://ns.adobe.com/Extensibility/1.0/" xmlns:i="http://ns.adobe.com/AdobeIllustrator/10.0/" xmlns:graph="http://ns.adobe.com/Graphs/1.0/" xmlns="http://www.w3.org/2000/svg" xmlns:xlink="http://www.w3.org/1999/xlink" version="1.1" x="0px" y="0px" viewBox="0 0 100 100" style="enable-background:new 0 0 100 100;" xml:space="preserve"><g><g i:extraneous="self"><g><path d="M5273.1,2400.1v-2c0-2.8-5-4-9.7-4s-9.7,1.3-9.7,4v2c0,1.8,0.7,3.6,2,4.9l5,4.9c0.3,0.3,0.4,0.6,0.4,1v6.4     c0,0.4,0.2,0.7,0.6,0.8l2.9,0.9c0.5,0.1,1-0.2,1-0.8v-7.2c0-0.4,0.2-0.7,0.4-1l5.1-5C5272.4,2403.7,5273.1,2401.9,5273.1,2400.1z      M5263.4,2400c-4.8,0-7.4-1.3-7.5-1.8v0c0.1-0.5,2.7-1.8,7.5-1.8c4.8,0,7.3,1.3,7.5,1.8C5270.7,2398.7,5268.2,2400,5263.4,2400z"></path><path d="M5268.4,2410.3c-0.6,0-1,0.4-1,1c0,0.6,0.4,1,1,1h4.3c0.6,0,1-0.4,1-1c0-0.6-0.4-1-1-1H5268.4z"></path><path d="M5272.7,2413.7h-4.3c-0.6,0-1,0.4-1,1c0,0.6,0.4,1,1,1h4.3c0.6,0,1-0.4,1-1C5273.7,2414.1,5273.3,2413.7,5272.7,2413.7z"></path><path d="M5272.7,2417h-4.3c-0.6,0-1,0.4-1,1c0,0.6,0.4,1,1,1h4.3c0.6,0,1-0.4,1-1C5273.7,2417.5,5273.3,2417,5272.7,2417z"></path></g><g><path d="M79.9,24.7c-1.1,0.6-1.5,2-0.9,3.1c3.4,6.3,4.9,15.2,4.2,24.9c-0.1,1.3,0.9,2.4,2.1,2.5c0.1,0,0.1,0,0.2,0     c1.2,0,2.2-0.9,2.3-2.2c0.7-10.8-0.9-20.2-4.8-27.4C82.4,24.5,81,24.1,79.9,24.7z"></path><path d="M92.6,24.4c-0.6-1.1-2-1.5-3.1-0.9c-1.1,0.6-1.5,2-0.9,3.1c3.5,6.6,5,15.9,4.1,26.1c-0.1,1.3,0.8,2.4,2.1,2.5     c0.1,0,0.1,0,0.2,0c1.2,0,2.2-0.9,2.3-2.1C98.2,42,96.5,31.8,92.6,24.4z"></path><path d="M16.9,39.3c0.1-1.3-0.9-2.4-2.1-2.5c-1.3-0.1-2.4,0.9-2.5,2.1c-0.7,10.8,0.9,20.2,4.8,27.4c0.4,0.8,1.2,1.2,2,1.2     c0.4,0,0.7-0.1,1.1-0.3c1.1-0.6,1.5-2,0.9-3.1C17.7,57.9,16.2,49.1,16.9,39.3z"></path><path d="M7.4,39.4c0.1-1.3-0.8-2.4-2.1-2.5C4,36.8,2.9,37.7,2.8,39c-1,11.1,0.7,21.3,4.7,28.7c0.4,0.8,1.2,1.2,2,1.2     c0.4,0,0.7-0.1,1.1-0.3c1.1-0.6,1.5-2,0.9-3.1C7.9,58.9,6.5,49.6,7.4,39.4z"></path><path d="M73.9,67.8c4.5-3.8,3.6-10.9,2.1-18C74.2,41.4,69,18.4,69,18.4c-0.5-2-2.5-3.3-4.5-2.8c-2,0.4-3.3,2.5-2.8,4.5l3.8,16.6     c0.2,0.6-0.2,1.2-0.8,1.4l-0.1,0c-0.6,0.2-1.3-0.2-1.5-0.8l-6.6-21c-0.6-2-2.8-3.2-4.7-2.5c-2,0.6-3.1,2.8-2.5,4.7l6.6,21     c0.2,0.6-0.2,1.3-0.8,1.5c-0.6,0.2-1.2-0.1-1.4-0.6L43.6,17c-0.8-1.9-3-2.8-4.9-2c-1.9,0.9-2.8,3.1-2,5l9.8,22.5     c0.3,0.6-0.1,1.3-0.8,1.6l-0.4,0.1c-0.5,0.2-1.1,0-1.4-0.5L33.9,25.9c-1-1.8-3.3-2.4-5.2-1.4c-1.8,1-2.4,3.4-1.4,5.2     c0,0,8.4,14.3,10,17.5c1.5,2.9,2.3,4.7,3.4,7.3l0,0c0.6,1.4-0.7,3-2.2,2.6c-0.4-0.1-0.7-0.2-0.8-0.3c-0.2-0.1-0.5-0.3-0.8-0.5     c-1.5-0.8-3.8-2.2-5.3-2.9c-2.4-1.1-4.5-1.1-5.9,0.7c-1.5,1.9-1.1,4.7,0.9,6c0,0,12.2,9.8,18.8,13.3c2.3,1.2,5.2,2.3,7.8,2.2     l3.1,8.6c0.6,1.6,2.3,2.4,3.9,1.9l14.9-5.4c1.6-0.6,2.5-2.3,1.9-4L73.9,67.8z"></path></g></g></g></svg>