<svg height='100px' width='100px'  fill="#000000" xmlns:dc="http://purl.org/dc/elements/1.1/" xmlns:cc="http://creativecommons.org/ns#" xmlns:rdf="http://www.w3.org/1999/02/22-rdf-syntax-ns#" xmlns:svg="http://www.w3.org/2000/svg" xmlns="http://www.w3.org/2000/svg" xmlns:sodipodi="http://sodipodi.sourceforge.net/DTD/sodipodi-0.dtd" xmlns:inkscape="http://www.inkscape.org/namespaces/inkscape" viewBox="0 0 26 26" version="1.1" x="0px" y="0px"><g transform="translate(0,-1026.3622)"><g transform="matrix(1.0664186,0,0,1.0664186,58.689952,71.970494)"><g transform="translate(-56.000005,-133)"><path style="color:#000000;font-style:normal;font-variant:normal;font-weight:normal;font-stretch:normal;font-size:medium;line-height:normal;font-family:sans-serif;text-indent:0;text-align:start;text-decoration:none;text-decoration-line:none;text-decoration-style:solid;text-decoration-color:#000000;letter-spacing:normal;word-spacing:normal;text-transform:none;direction:ltr;block-progression:tb;writing-mode:lr-tb;baseline-shift:baseline;text-anchor:start;white-space:normal;clip-rule:nonzero;display:inline;overflow:visible;visibility:visible;opacity:1;isolation:auto;mix-blend-mode:normal;color-interpolation:sRGB;color-interpolation-filters:linearRGB;solid-color:#000000;solid-opacity:1;fill:#000000;fill-opacity:1;fill-rule:nonzero;stroke:none;stroke-width:0.93771809;stroke-linecap:square;stroke-linejoin:round;stroke-miterlimit:4;stroke-dasharray:none;stroke-dashoffset:0;stroke-opacity:1;marker:none;color-rendering:auto;image-rendering:auto;shape-rendering:auto;text-rendering:auto;enable-background:accumulate" d="M 13.001953 0 C 5.8281621 0 -1.492986e-005 5.824249 0 12.998047 C -1.492986e-005 20.171845 5.8281621 26 13.001953 26 C 20.175741 26 26.000015 20.171845 26 12.998047 C 26.000015 5.824249 20.175741 0 13.001953 0 z M 13.001953 1 C 19.6353 1 25.000014 6.3647099 25 12.998047 C 25.000014 19.631384 19.6353 24.998047 13.001953 24.998047 C 6.3686028 24.998047 0.99998614 19.631384 1 12.998047 C 0.99998614 6.3647099 6.3686028 1 13.001953 1 z M 6.9980469 11 C 5.8993872 11 4.9999822 11.901269 5 13 C 4.9999822 14.098624 5.8993872 15 6.9980469 15 C 8.0967064 15 9.0000178 14.098624 9 13 C 9.0000178 11.901269 8.0967064 11 6.9980469 11 z M 13 11 C 11.90134 11 10.999982 11.901269 11 13 C 10.999982 14.098624 11.90134 15 13 15 C 14.09866 15 15.000018 14.098624 15 13 C 15.000018 11.901269 14.09866 11 13 11 z M 19 11 C 17.90134 11 16.999982 11.901269 17 13 C 16.999982 14.098624 17.90134 15 19 15 C 20.09866 15 21.000018 14.098624 21 13 C 21.000018 11.901269 20.09866 11 19 11 z " transform="matrix(0.93771808,0,0,0.93771808,0.96537601,1027.9504)"></path></g></g></g></svg>