<svg height='100px' width='100px'  fill="#000000" xmlns="http://www.w3.org/2000/svg" xmlns:xlink="http://www.w3.org/1999/xlink" version="1.1" x="0px" y="0px" viewBox="0 0 100 100" enable-background="new 0 0 100 100" xml:space="preserve"><g><g><path d="M27.3,56.7c-7.3-3.3-12-10.7-12-18.7v-0.3c0-5.1,4.1-9.2,9.2-9.2h11v1.6h-11c-4.2,0-7.6,3.4-7.6,7.6V38    c0,7.4,4.4,14.2,11.1,17.3L27.3,56.7z"></path><path d="M27.5,57.4l-0.4-0.2C19.6,53.8,14.8,46.2,14.8,38v-0.3c0-5.3,4.3-9.7,9.7-9.7h11.5v2.5H24.4c-3.9,0-7.1,3.2-7.1,7.1V38    c0,7.2,4.2,13.8,10.8,16.8l0.4,0.2L27.5,57.4z M24.4,29c-4.8,0-8.7,3.9-8.7,8.7V38c0,7.7,4.4,14.7,11.3,18.1l0.3-0.6    C20.6,52.3,16.3,45.5,16.3,38v-0.3c0-4.5,3.6-8.1,8.1-8.1h10.5V29H24.4z"></path></g><g><path d="M63.8,58.6h-28c-1.5,0-2.9-0.2-4.4-0.5l0.3-1.5c1.3,0.3,2.7,0.4,4,0.4h28c1.1,0,2.2-0.1,3.2-0.3l0.3,1.6    C66.2,58.5,65,58.6,63.8,58.6z"></path><path d="M63.8,59.1h-28c-1.5,0-3-0.2-4.5-0.5l-0.5-0.1l0.5-2.5l0.5,0.1c1.3,0.3,2.6,0.4,3.9,0.4h28c1.1,0,2.1-0.1,3.2-0.3l0.5-0.1    l0.5,2.5l-0.5,0.1C66.2,58.9,65,59.1,63.8,59.1z M32,57.7c1.2,0.2,2.5,0.4,3.8,0.4h28c1,0,2-0.1,3-0.2l-0.1-0.6    c-0.9,0.1-1.9,0.2-2.8,0.2h-28c-1.2,0-2.5-0.1-3.7-0.3L32,57.7z"></path></g><g><path d="M71.1,57.2l-0.6-1.5c4-1.6,7.3-4.6,9.3-8.5l1.4,0.7C79.1,52.1,75.5,55.4,71.1,57.2z"></path><path d="M70.9,57.8l-1-2.4l0.4-0.2c3.9-1.6,7.1-4.5,9-8.2l0.2-0.4l2.3,1.2l-0.2,0.4c-2.2,4.3-5.9,7.6-10.3,9.4L70.9,57.8z     M71.2,56l0.2,0.6c3.9-1.7,7.1-4.6,9.1-8.4L80,47.9C78,51.5,74.9,54.3,71.2,56z"></path></g><g><path d="M83,42.7l-1.6-0.3c0.2-1.1,0.3-2.2,0.3-3.3v-1.3c0-4.2-3.4-7.6-7.6-7.6H49.6v-1.6h24.5c5.1,0,9.2,4.1,9.2,9.2v1.3    C83.3,40.3,83.2,41.5,83,42.7z"></path><path d="M83.4,43.2l-2.5-0.5l0.1-0.5c0.2-1.1,0.3-2.1,0.3-3.2v-1.3c0-3.9-3.2-7.1-7.1-7.1h-25v-2.5h25c5.3,0,9.7,4.3,9.7,9.7v1.3    c0,1.2-0.1,2.5-0.3,3.7L83.4,43.2z M82,42l0.6,0.1c0.2-1,0.2-2,0.2-3.1v-1.3c0-4.8-3.9-8.7-8.7-8.7h-24v0.6h24    c4.5,0,8.1,3.6,8.1,8.1v1.3C82.2,40,82.2,41,82,42z"></path></g><g><path d="M27.8,80.1h-8.3c-2.4,0-4.3-1.9-4.3-4.3V38h1.6v37.8c0,1.5,1.2,2.8,2.8,2.8h8.3V80.1z"></path><path d="M28.3,80.6h-8.7c-2.7,0-4.8-2.2-4.8-4.8V37.5h2.5v38.2c0,1.3,1,2.3,2.3,2.3h8.7V80.6z M15.7,38.5v37.3    c0,2.1,1.7,3.9,3.9,3.9h7.8V79h-7.8c-1.8,0-3.2-1.5-3.2-3.2V38.5H15.7z"></path></g><g><rect x="31" y="78.6" width="36.3" height="1.6"></rect><path d="M67.8,80.6H30.6v-2.5h37.2V80.6z M31.5,79.6h35.3V79H31.5V79.6z"></path></g><g><path d="M79,80.1h-8.5v-1.6H79c1.5,0,2.8-1.2,2.8-2.8V48.7h1.6v27.1C83.3,78.2,81.4,80.1,79,80.1z"></path><path d="M79,80.6h-9v-2.5h9c1.3,0,2.3-1,2.3-2.3V48.2h2.5v27.6C83.8,78.4,81.7,80.6,79,80.6z M71,79.6h8c2.1,0,3.9-1.7,3.9-3.9    V49.2h-0.6v26.6c0,1.8-1.5,3.2-3.2,3.2h-8V79.6z"></path></g><g><rect x="81.8" y="38" width="1.6" height="4.9"></rect><path d="M83.8,43.4h-2.5v-5.9h2.5V43.4z M82.2,42.4h0.6v-3.9h-0.6V42.4z"></path></g><g><path d="M53.9,53.8h-9.4v-6.9h9.4V53.8z M46,52.2h6.3v-3.8H46V52.2z"></path><path d="M54.3,54.3H43.9v-7.9h10.4V54.3z M44.9,53.3h8.5v-6h-8.5V53.3z M52.8,52.7h-7.3v-4.8h7.3V52.7z M46.5,51.7h5.3v-2.8h-5.3    V51.7z"></path></g><g><path d="M29.5,81.1c-1.3,0-2.4-1.1-2.4-2.4v-9.2h1.6v9.2c0,0.4,0.4,0.8,0.8,0.8c0.5,0,0.9-0.4,0.9-0.9v-9.3h1.6v9.3    C31.9,80,30.8,81.1,29.5,81.1z"></path><path d="M29.5,81.6c-1.6,0-2.9-1.3-2.9-2.9V69h2.5v9.7c0,0.2,0.1,0.3,0.3,0.3c0.2,0,0.4-0.2,0.4-0.4V69h2.5v9.7    C32.4,80.3,31.1,81.6,29.5,81.6z M27.5,70v8.8c0,1,0.9,1.9,1.9,1.9c1.1,0,2-0.9,2-2v-8.8h-0.6v8.8c0,0.8-0.6,1.3-1.4,1.3    c-0.7,0-1.3-0.6-1.3-1.3V70H27.5z"></path></g><g><path d="M31.9,67.5h-1.6V47h-1.7v20.5H27V46.5c0-0.6,0.5-1.1,1.1-1.1h2.6c0.6,0,1.1,0.5,1.1,1.1V67.5z"></path><path d="M32.4,67.9h-2.5V47.4h-0.7v20.5h-2.5V46.5c0-0.9,0.7-1.6,1.6-1.6h2.6c0.9,0,1.6,0.7,1.6,1.6V67.9z M30.8,67h0.6V46.5    c0-0.4-0.3-0.7-0.7-0.7h-2.6c-0.3,0-0.6,0.3-0.6,0.6v20.5h0.6V46.5h2.7V67z"></path></g><g><path d="M31.3,70.2h-3.6c-0.7,0-1.3-0.6-1.3-1.3V68c0-0.7,0.6-1.3,1.3-1.3h3.6c0.7,0,1.3,0.6,1.3,1.3v0.9    C32.6,69.6,32,70.2,31.3,70.2z M28,68.6h3v-0.3h-3V68.6z"></path><path d="M31.3,70.6h-3.6c-1,0-1.7-0.8-1.7-1.7V68c0-1,0.8-1.7,1.7-1.7h3.6c1,0,1.7,0.8,1.7,1.7v0.9C33,69.9,32.3,70.6,31.3,70.6z     M27.7,67.2c-0.4,0-0.8,0.3-0.8,0.8v0.9c0,0.4,0.3,0.8,0.8,0.8h3.6c0.4,0,0.8-0.3,0.8-0.8V68c0-0.4-0.3-0.8-0.8-0.8H27.7z     M31.5,69.1h-3.9v-1.3h3.9V69.1z"></path></g><g><path d="M31,67.1l0-3.4l-3,0l0,1.8l0,1.6c-0.9,0-1.6-0.7-1.6-1.6v-1.8c0-0.9,0.7-1.6,1.6-1.6h3c0.9,0,1.6,0.7,1.6,1.6v1.8    C32.6,66.4,31.8,67.1,31,67.1z"></path><path d="M31,67.6h-0.5l0-3.4l-2,0l0,1.3l0,2.1H28c-1.1,0-2.1-0.9-2.1-2.1v-1.8c0-1.1,0.9-2.1,2.1-2.1h3c1.1,0,2.1,0.9,2.1,2.1v1.8    C33,66.7,32.1,67.6,31,67.6z M27.5,63.2l3.9,0l0,3.3c0.4-0.2,0.6-0.6,0.6-1v-1.8c0-0.6-0.5-1.1-1.1-1.1h-3c-0.6,0-1.1,0.5-1.1,1.1    v1.8c0,0.4,0.3,0.8,0.6,1l0-1L27.5,63.2z"></path></g><g><circle cx="29.5" cy="48" r="1.4"></circle><path d="M29.5,49.9c-1,0-1.9-0.9-1.9-1.9s0.9-1.9,1.9-1.9c1,0,1.9,0.9,1.9,1.9S30.5,49.9,29.5,49.9z M29.5,47.1    c-0.5,0-0.9,0.4-0.9,0.9c0,0.5,0.4,0.9,0.9,0.9c0.5,0,0.9-0.4,0.9-0.9C30.4,47.5,30,47.1,29.5,47.1z"></path></g><g><circle cx="29.5" cy="51.4" r="1.4"></circle><path d="M29.5,53.3c-1,0-1.9-0.9-1.9-1.9s0.9-1.9,1.9-1.9c1,0,1.9,0.9,1.9,1.9S30.5,53.3,29.5,53.3z M29.5,50.4    c-0.5,0-0.9,0.4-0.9,0.9s0.4,0.9,0.9,0.9c0.5,0,0.9-0.4,0.9-0.9S30,50.4,29.5,50.4z"></path></g><g><path d="M86.3,51.8l-0.7-0.4c-0.1,0-6.9-4.3-9.5-5.4c-0.4-0.2-1.5-0.7-3-1.3c-7.5-3.3-27.3-12.1-31.9-13.2    c-5.3-1.2-6.3-1.3-6.3-1.3l-7.8,0l1.1-1.3c0.2-0.2,1.8-1.9,8.4-1.9c6.5,0,17.9,2.5,21,3.7c3.1,1.3,20.8,9.3,22.1,9.9    c0.1,0,9,4.4,9.4,5.4c0.2,0.4,0.3,0.8-2.4,5.3L86.3,51.8z M34.3,28.6H35c0.2,0,1.2,0.1,6.6,1.4c4.8,1.1,24,9.7,32.2,13.3    c1.5,0.7,2.6,1.1,3,1.3c2.2,0.9,7.2,3.9,9,5.1c0.7-1.2,1.5-2.5,1.7-3.2c-1.4-0.9-6.9-3.9-8.5-4.6c-1.4-0.6-19-8.6-22-9.8    c-2.9-1.2-14.2-3.6-20.4-3.6C35.8,28.5,35,28.5,34.3,28.6z"></path><path d="M86.4,52.5l-1.1-0.7c-0.1,0-6.9-4.3-9.4-5.3c-0.4-0.2-1.5-0.7-3-1.3C65.5,41.8,45.7,33,41.1,31.9    c-5.2-1.2-6.2-1.3-6.2-1.3l-8.8,0l1.8-2.1c0.3-0.4,2.1-2.1,8.8-2.1c6.5,0,18.1,2.5,21.2,3.7c3.1,1.3,20.8,9.3,22.1,9.9    c0.1,0,9.1,4.5,9.6,5.6c0.2,0.6,0.4,1-2.4,5.7L86.4,52.5z M34.9,29.7c0.1,0,1.2,0.1,6.4,1.3c4.7,1.1,24.5,9.9,32,13.3    c1.5,0.7,2.6,1.1,3,1.3c2.6,1.1,9.4,5.4,9.5,5.4l0.3,0.2l0.2-0.3c2.6-4.3,2.4-4.7,2.4-4.8c-0.5-0.7-7-4.1-9.2-5.2    c-1.2-0.6-18.9-8.6-22-9.8c-3.1-1.2-14.4-3.7-20.8-3.7c-6.4,0-8,1.7-8,1.8l-0.4,0.5L34.9,29.7z M85.9,50.3l-0.4-0.3    c-2-1.2-6.8-4.1-8.9-5c-0.4-0.2-1.5-0.7-3-1.3C65.4,40,46.2,31.5,41.5,30.4C36,29.1,35,29,35,29h-0.6l0-1C35,28,35.8,28,36.6,28    c6.3,0,17.6,2.4,20.6,3.6c3,1.2,20.7,9.2,22,9.8c1.4,0.7,7.1,3.7,8.5,4.6l0.3,0.2l-0.2,0.4c-0.3,0.7-1.1,2.1-1.8,3.2L85.9,50.3z     M40.6,29.2c0.3,0.1,0.7,0.2,1.1,0.2c4.8,1.1,24.1,9.7,32.3,13.4c1.5,0.7,2.6,1.1,3,1.3c2,0.9,6.4,3.5,8.6,4.8    c0.5-0.9,1-1.8,1.3-2.3c-1.8-1.1-6.6-3.6-8-4.3c-1.4-0.6-19-8.6-22-9.8C54.5,31.6,46.8,29.8,40.6,29.2z"></path></g><g><polygon points="88.4,47 87.7,46.7 81.8,43.3 82.6,41.9 84.1,42.8 82,40.5 83.1,39.4 89.2,45.9   "></polygon><path d="M88.5,47.7l-1-0.5l-6.4-3.7l1.1-1.9l-1-1l1.9-1.7l6.7,7.1L88.5,47.7z M82.5,43.1l5.8,3.3l0.4-0.5l-5.5-5.8l-0.4,0.4    l4.1,4.3l-3.9-2.3L82.5,43.1z"></path></g><g><path d="M64.9,41.7c-0.2,0-0.4,0-0.6-0.1l-2.3-1c-1.2-0.6-1.6-2-1.1-3.1l1.5-3.2c0.3-0.5,0.7-0.9,1.2-1.1c0.6-0.2,1.1-0.1,1.7,0.1    l2.4,1.2c0.6,0.3,0.9,1,0.7,1.6l-1.5-0.5c0,0.1,0,0.2,0.1,0.2l-2.4-1.2c-0.1-0.1-0.3-0.1-0.4,0c-0.1,0-0.3,0.2-0.3,0.3l-1.5,3.2    c-0.2,0.4,0,0.8,0.3,1l3.6,1.6l0,0C66.1,41.4,65.5,41.7,64.9,41.7z"></path><path d="M64.9,42.2c-0.3,0-0.5-0.1-0.8-0.2l-2.3-1c-1.4-0.8-2-2.4-1.3-3.8l1.5-3.2c0.3-0.6,0.8-1.1,1.5-1.4c0.7-0.2,1.4-0.2,2,0.1    l2.4,1.2c0.8,0.4,1.2,1.3,1,2.2l-0.1,0.5L67,36.2l-0.1,0.2l0,0l-2.5-1.2c0,0,0,0,0,0l-1.5,3.2c-0.1,0.1,0,0.3,0.1,0.4l4,1.8    l-0.2,0.5C66.4,41.8,65.7,42.2,64.9,42.2z M64.5,33.5c-0.2,0-0.4,0-0.5,0.1c-0.4,0.1-0.8,0.4-1,0.9l-1.5,3.2    c-0.4,0.9-0.1,2,0.9,2.5l2.2,0.9c0.4,0.2,0.8,0.1,1.1-0.1l-3-1.3c-0.6-0.3-0.9-1.1-0.6-1.7l1.5-3.2c0.1-0.3,0.3-0.4,0.6-0.5    c0.3-0.1,0.6-0.1,0.8,0.1l1.8,0.9l0-0.1l1.4,0.4c-0.1-0.2-0.2-0.5-0.5-0.6l-2.4-1.2C65,33.6,64.7,33.5,64.5,33.5z M67.2,35.8    l0.3,0.1c0-0.1,0-0.3-0.2-0.3L67.2,35.8z"></path></g><g><g><path d="M68.9,81.1c-1.3,0-2.4-1.1-2.4-2.4v-9.2h1.6v9.2c0,0.4,0.4,0.8,0.8,0.8c0.5,0,0.9-0.4,0.9-0.9v-9.3h1.6v9.3     C71.4,80,70.3,81.1,68.9,81.1z"></path><path d="M68.9,81.6c-1.6,0-2.9-1.3-2.9-2.9V69h2.5v9.7c0,0.2,0.1,0.3,0.3,0.3c0.2,0,0.4-0.2,0.4-0.4V69h2.5v9.7     C71.9,80.3,70.6,81.6,68.9,81.6z M67,70v8.8c0,1,0.9,1.9,1.9,1.9c1.1,0,2-0.9,2-2v-8.8h-0.6v8.8c0,0.8-0.6,1.3-1.4,1.3     c-0.7,0-1.3-0.6-1.3-1.3V70H67z"></path></g><g><path d="M71.4,67.5h-1.6V47h-1.7v20.5h-1.6V46.5c0-0.6,0.5-1.1,1.1-1.1h2.6c0.6,0,1.1,0.5,1.1,1.1V67.5z"></path><path d="M71.9,67.9h-2.5V47.4h-0.7v20.5H66V46.5c0-0.9,0.7-1.6,1.6-1.6h2.6c0.9,0,1.6,0.7,1.6,1.6V67.9z M70.3,67h0.6V46.5     c0-0.4-0.3-0.7-0.7-0.7h-2.6c-0.3,0-0.6,0.3-0.6,0.6v20.5h0.6V46.5h2.7V67z"></path></g><g><path d="M70.8,70.2h-3.6c-0.7,0-1.3-0.6-1.3-1.3V68c0-0.7,0.6-1.3,1.3-1.3h3.6c0.7,0,1.3,0.6,1.3,1.3v0.9     C72,69.6,71.5,70.2,70.8,70.2z M67.5,68.6h3v-0.3h-3V68.6z"></path><path d="M70.8,70.6h-3.6c-1,0-1.7-0.8-1.7-1.7V68c0-1,0.8-1.7,1.7-1.7h3.6c1,0,1.7,0.8,1.7,1.7v0.9     C72.5,69.9,71.7,70.6,70.8,70.6z M67.2,67.2c-0.4,0-0.8,0.3-0.8,0.8v0.9c0,0.4,0.3,0.8,0.8,0.8h3.6c0.4,0,0.8-0.3,0.8-0.8V68     c0-0.4-0.3-0.8-0.8-0.8H67.2z M70.9,69.1H67v-1.3h3.9V69.1z"></path></g><g><path d="M70.5,67.1l0-3.4l-3,0l0,1.8l0,1.6c-0.9,0-1.6-0.7-1.6-1.6v-1.8c0-0.9,0.7-1.6,1.6-1.6h3c0.9,0,1.6,0.7,1.6,1.6v1.8     C72,66.4,71.3,67.1,70.5,67.1z"></path><path d="M70.5,67.6H70l0-3.4l-2,0l0,1.3l0,2.1h-0.5c-1.1,0-2.1-0.9-2.1-2.1v-1.8c0-1.1,0.9-2.1,2.1-2.1h3c1.1,0,2.1,0.9,2.1,2.1     v1.8C72.5,66.7,71.6,67.6,70.5,67.6z M67,63.2l3.9,0l0,3.3c0.4-0.2,0.6-0.6,0.6-1v-1.8c0-0.6-0.5-1.1-1.1-1.1h-3     c-0.6,0-1.1,0.5-1.1,1.1v1.8c0,0.4,0.3,0.8,0.6,1l0-1L67,63.2z"></path></g></g><g><circle cx="69" cy="48" r="1.4"></circle><path d="M69,49.9c-1,0-1.9-0.9-1.9-1.9s0.9-1.9,1.9-1.9c1,0,1.9,0.9,1.9,1.9S70,49.9,69,49.9z M69,47.1c-0.5,0-0.9,0.4-0.9,0.9    c0,0.5,0.4,0.9,0.9,0.9c0.5,0,0.9-0.4,0.9-0.9C69.9,47.5,69.5,47.1,69,47.1z"></path></g><g><circle cx="69" cy="51.4" r="1.4"></circle><path d="M69,53.3c-1,0-1.9-0.9-1.9-1.9s0.9-1.9,1.9-1.9c1,0,1.9,0.9,1.9,1.9S70,53.3,69,53.3z M69,50.4c-0.5,0-0.9,0.4-0.9,0.9    s0.4,0.9,0.9,0.9c0.5,0,0.9-0.4,0.9-0.9S69.5,50.4,69,50.4z"></path></g></g></svg>