<svg height='100px' width='100px'  fill="#000000" xmlns="http://www.w3.org/2000/svg" xmlns:xlink="http://www.w3.org/1999/xlink" version="1.1" x="0px" y="0px" viewBox="0 0 85 85" enable-background="new 0 0 85 85" xml:space="preserve"><g><path fill-rule="evenodd" clip-rule="evenodd" d="M83.747,48.579c0-0.111,0.013-0.226-0.004-0.337   c-0.016-0.107-0.091-0.178-0.215-0.218c-0.006,0.081-0.004,0.138-0.016,0.191c-0.023,0.104-0.229,0.207-0.292,0.147   c-0.119-0.112-0.03-0.258-0.059-0.385c-0.043-0.198-0.324,0.049-0.349-0.186c-0.005-0.039-0.001-0.078-0.001-0.117   c0-0.073,0-0.146,0-0.261c-0.333,0-0.635,0-0.954,0c0-0.64,0-1.238,0-1.838c-0.112-0.013-0.204-0.022-0.334-0.037   c0.016-0.277,0.011-0.558-0.172-0.797c-0.19,0-0.386-0.013-0.578,0.004c-0.185,0.015-0.364-0.022-0.562,0.05   c-0.114,0.043-0.333-0.068-0.511-0.052c-0.13,0.013-0.266-0.053-0.39,0.048c-0.151,0.122-0.206-0.063-0.229-0.122   c-0.039-0.103-0.011-0.229-0.011-0.347c0-0.662,0.004-1.324-0.001-1.986c-0.003-0.334-0.188-0.512-0.53-0.515   c-0.409-0.004-0.819,0.014-1.227-0.006c-0.256-0.013-0.478,0.048-0.711,0.187c0,0.196,0,0.405,0,0.655c-0.281,0-0.544,0-0.803,0   c0,1.502,0,2.963,0,4.423c0,0.117,0.01,0.235-0.003,0.351c-0.014,0.125-0.105,0.212-0.219,0.227   c-0.13,0.017-0.206-0.099-0.24-0.203c-0.028-0.088-0.006-0.192-0.006-0.29c0-0.39,0.002-0.779-0.003-1.168   c0-0.029-0.041-0.058-0.062-0.084c-0.091-0.023-0.196,0.045-0.295-0.07c0-0.615,0-1.252,0-1.93c-0.359,0-0.7,0-1.059,0   c0-0.874,0-1.706,0-2.544c-0.075-0.006-0.132-0.015-0.187-0.013c-0.263,0.008-0.52,0.017-0.5-0.365   c0.006-0.112-0.086-0.104-0.163-0.104c-0.093,0-0.186,0-0.303,0c0-0.673,0.001-1.312-0.002-1.952c0-0.091,0.042-0.252-0.057-0.257   c-0.285-0.016-0.16-0.214-0.171-0.337c-0.024-0.278,0.078-0.59-0.234-0.78c0.079-0.205-0.158-0.332-0.125-0.535   c0.048-0.283-0.103-0.5-0.286-0.699c-0.119,0.111,0.004,0.313-0.166,0.405c-0.239,0.129,0.063,0.278-0.007,0.425   c-0.052,0.108-0.135,0.163-0.226,0.231c-0.181,0.135-0.412,0.103-0.6,0.265c-0.261,0.229-0.558,0.443-0.854,0.612   c-0.364,0.208-0.43,0.472-0.429,0.822c0.001,1.539,0.001,3.077-0.002,4.615c0,0.11,0.046,0.231-0.045,0.331   c-0.094,0.008-0.186,0.016-0.304,0.026c0,0.497,0.001,0.98,0,1.464c0,0.076-0.002,0.153-0.019,0.228   c-0.004,0.021-0.061,0.041-0.094,0.042s-0.095-0.02-0.097-0.036c-0.015-0.113-0.022-0.228-0.023-0.342   c-0.003-0.253,0.005-0.507-0.002-0.76c-0.007-0.244,0.032-0.493-0.023-0.706c-0.638,0-1.235,0-1.816,0   c0,0.348-0.062,0.69,0.023,0.992c0.049,0.176-0.05,0.229-0.098,0.243c-0.125,0.038-0.266,0.021-0.399,0.027   c-0.239,0.012-0.484-0.032-0.804,0.053c0.268,0.093,0.193,0.251,0.194,0.378c0.005,0.856,0.006,1.714-0.001,2.57   c-0.001,0.128,0.081,0.302-0.057,0.379c-0.223,0.125-0.103-0.232-0.298-0.236c-0.216-0.005-0.104-0.214-0.104-0.323   c-0.008-2.182-0.006-4.362-0.006-6.543c0-0.191,0-0.382,0-0.613c-0.563,0-1.099,0-1.636,0c0-0.43-0.029-0.822,0.008-1.207   c0.04-0.408-0.173-0.778-0.126-1.18c0.006-0.054,0.022-0.149-0.043-0.152c-0.31-0.014-0.113-0.281-0.198-0.375   c-0.162-0.178-0.059-0.399-0.16-0.582c-0.087-0.155-0.164-0.336-0.17-0.509c-0.007-0.179-0.135-0.343-0.057-0.527   c-0.18-0.168,0.022-0.416-0.139-0.616c-0.119,0.226,0.039,0.496-0.142,0.686c0.031,0.43-0.007,0.586-0.259,0.985   c0-0.333-0.008-0.622,0.003-0.91c0.005-0.145-0.111-0.188-0.181-0.273c-0.188,0.304-0.469-0.047-0.682,0.095   c-0.028,0.019-0.072,0.02-0.108,0.019c-0.13-0.004-0.248,0.008-0.373-0.096c-0.128-0.106-0.271,0.197-0.4,0.089   c-0.293-0.244-0.636,0.212-0.905-0.092c-0.111,0.165-0.337,0.147-0.415,0.085c-0.179-0.142-0.295,0.079-0.441,0.016   c-0.066-0.028-0.151,0.031-0.218-0.04c-0.15-0.164-0.225,0.056-0.234,0.094c-0.034,0.127-0.018,0.268-0.018,0.404   c-0.001,1.168,0,2.337,0,3.505c0,1.11-0.003,2.22,0.003,3.33c0.001,0.164,0.001,0.337-0.166,0.393   c-0.152,0.051-0.339,0.086-0.473-0.083c-0.035-0.046-0.081-0.084-0.116-0.119c-0.415,0.295-0.856,0.284-1.354,0.137   c0,0.838,0,1.685,0,2.53c-0.172,0-0.303,0-0.475,0c0-1.287,0-2.562,0-3.856c-0.172,0-0.303,0-0.457,0   c0-0.387,0.001-0.754-0.001-1.121c0-0.076,0.009-0.208-0.02-0.218c-0.381-0.13-0.201-0.444-0.205-0.668   c-0.019-1.106-0.009-2.213-0.009-3.361c-0.284,0-0.548,0-0.828,0c0-0.367,0-0.692,0-1.037c-0.304-0.044-0.647,0.104-0.857-0.226   c-0.019-0.028-0.11-0.005-0.165-0.018c-0.115-0.026-0.146,0.1-0.241,0.125c-0.107,0.029-0.146-0.226-0.275-0.044   c-0.047,0.066-0.138-0.122-0.254,0.008c-0.073,0.083-0.254,0.064-0.346-0.076c-0.083,0.073-0.165,0.147-0.251,0.216   c-0.004,0.003-0.049-0.057-0.081-0.078c-0.104-0.071-0.258-0.07-0.33-0.024c-0.269,0.172-0.556,0.096-0.834,0.104   c-0.421,0.012-0.843,0.003-1.282,0.003c0,2.409,0,4.759,0,7.131c-0.19,0-0.359,0-0.517,0c-0.082,0.105-0.046,0.206-0.046,0.298   c-0.003,1.48,0.003,2.96-0.009,4.44c-0.001,0.169,0.145,0.428-0.1,0.499c-0.136,0.04-0.2-0.245-0.379-0.302   c-0.082-0.026-0.133-0.14-0.211-0.197c-0.106-0.079-0.124-0.177-0.124-0.302c0.004-1.324,0.007-2.648-0.003-3.973   c-0.001-0.161,0.062-0.314,0.173-0.327c0.216-0.022,0.183-0.146,0.183-0.277c0.001-0.188,0.001-0.375,0.001-0.582   c-0.46,0-0.864,0-1.261,0c-0.071-0.276,0.033-0.55-0.06-0.797c-0.25-0.025-0.242-0.029-0.317-0.16   c-0.15-0.261-0.254-0.533-0.231-0.839c0.024-0.336-0.112-0.708,0.122-0.998c0.289-0.359-0.107-0.683-0.003-1.018   c0.043-0.136,0.095-0.288,0.19-0.384c0.191-0.193-0.188-0.249-0.073-0.405c0.011-0.016,0.028-0.027,0.041-0.042   c0.144-0.169,0.126-0.411,0.045-0.539c-0.11-0.173-0.099-0.334-0.082-0.492c0.041-0.405-0.082-0.784-0.16-1.167   c-0.021-0.099-0.092-0.102,0.053-0.162c0.509-0.213,0.481-0.236,0.631-0.565c0.063-0.138,0.066-0.267,0.046-0.386   c-0.048-0.263,0.119-0.396,0.276-0.531c0.237-0.205,0.419-0.494,0.432-0.748c0.009-0.186-0.035-0.374,0.109-0.542   c0.04-0.046,0.055-0.225-0.056-0.25c-0.259-0.062-0.388-0.354-0.69-0.358c-0.165,0.161-0.341,0.331-0.505,0.491   c-0.507-0.287-0.489-0.291-0.618-0.802c-0.065-0.261-0.126-0.542-0.376-0.722c-0.125-0.09-0.23-0.21-0.332-0.329   c-0.149-0.174-0.324-0.427-0.276-0.598c0.111-0.388,0.004-0.766,0.06-1.142c0.019-0.125-0.18-0.234-0.02-0.364   c-0.22,0.015-0.271-0.272-0.471-0.271c-0.299,0.001-0.333-0.187-0.338-0.417c-0.001-0.047-0.052-0.055-0.079-0.025   c-0.093,0.131,0.044,0.308-0.086,0.438c-0.073,0-0.151,0.002-0.228,0c-0.064-0.003-0.067-0.15-0.167-0.081   c-0.041,0.288-0.041,0.288-0.358,0.365c0.029,0.123,0.354,0.069,0.21,0.227c-0.156,0.173,0.104,0.281-0.002,0.374   c-0.148,0.13-0.079,0.284-0.102,0.429c-0.01,0.061-0.047,0.094-0.119,0.092c-0.072-0.002-0.115-0.037-0.11-0.099   c0.021-0.281-0.064-0.524-0.28-0.701c-0.171-0.14-0.215-0.303-0.191-0.508c0.037-0.324-0.078-0.631-0.192-0.913   c-0.109-0.27-0.166-0.525-0.16-0.811c0.006-0.334,0.045-0.667-0.187-0.976c-0.138-0.184-0.061-0.467,0.135-0.535   c0.187-0.065,0.206-0.084,0.12-0.261c-0.046-0.094,0.045-0.247-0.107-0.327c-0.095-0.05-0.23,0.057-0.308-0.096   c0.312-0.157,0.256-0.434,0.201-0.699c-0.007-0.032-0.172-0.206-0.177-0.098c-0.015,0.311-0.309,0.083-0.375,0.241   c0,0.078,0,0.156,0,0.233c0,0.059-0.005,0.118,0.001,0.175c0.014,0.135-0.079,0.229-0.123,0.312   c-0.044,0.083-0.308-0.074-0.163,0.159l0.172,0.406c0.078,0.063,0.117,0.136,0.116,0.246c-0.003,0.357,0.016,0.708,0.091,1.066   c0.052,0.248,0.181,0.489,0.146,0.766c-0.034,0.269-0.009,0.544-0.006,0.817c0.001,0.13,0.038,0.243,0.092,0.371   c0.152,0.355,0.218,0.728-0.087,1.077c-0.186,0.212-0.184,0.526-0.104,0.758c0.08,0.231,0.15,0.499,0.303,0.686   c0.129,0.157,0.163,0.302,0.142,0.471c-0.05,0.408,0.067,0.774,0.262,1.119c0.046,0.082,0.124,0.13,0.066,0.245   c-0.126,0.247-0.136,0.542-0.232,0.78c-0.154,0.38-0.107,0.679,0.08,1c0.026,0.046,0.071,0.13,0.057,0.145   c-0.222,0.225-0.02,0.531-0.15,0.757c-0.067,0.117-0.039,0.172-0.016,0.29c0.111,0.562,0.366,1.101,0.289,1.696   c-0.02,0.151,0.047,0.356-0.031,0.45c-0.156,0.188,0.139,0.279,0.036,0.451c-0.125,0.21-0.149,0.458-0.125,0.707   c0.032,0.335-0.069,0.68,0.112,1.006c0.08,0.143-0.099,0.313-0.05,0.449c0.09,0.25,0.062,0.454-0.053,0.692   c-0.135,0.283-0.321,0.377-0.624,0.382c-0.14,0.002-0.162,0.127-0.103,0.312c0.109,0.344-0.041,0.488-0.405,0.493   c-0.286,0.004-0.572,0.001-0.864,0.001c0,0.244-0.002,0.438,0.001,0.631c0.001,0.054,0.014,0.152,0.033,0.155   c0.352,0.056,0.19,0.328,0.192,0.498c0.014,1.168,0.007,2.337,0.007,3.505c0,0.214,0.031,0.435-0.009,0.641   c-0.036,0.181-0.288,0.157-0.396,0.292c-0.012,0.015-0.039,0.027-0.039,0.041c-0.008,0.228-0.169,0.208-0.319,0.195   c-0.13-0.012-0.269,0.047-0.411-0.056c0-2.961,0-5.935,0-8.94c-0.347,0-0.675-0.02-1,0.006c-0.328,0.025-0.607-0.226-0.979-0.093   c0-0.848-0.006-1.607,0.003-2.367c0.003-0.25-0.021-0.483-0.169-0.69c-0.096,0.028-0.042,0.133-0.086,0.177   c-0.076,0.076-0.143,0.226-0.275,0.151c-0.087-0.049-0.204-0.125-0.175-0.273c0.007-0.038,0-0.078,0.001-0.117   c0.014-0.39,0.017-0.392-0.135-0.606c-0.043-0.061-0.115-0.102-0.099-0.193c0.062-0.346-0.112-0.667-0.111-1.003   c0-0.225-0.063-0.411-0.287-0.698c0.12,0.369-0.041,0.575-0.09,0.809c-0.071,0.338-0.088,0.669-0.098,1.008   c-0.001,0.051-0.041,0.145-0.056,0.144c-0.244-0.022-0.165,0.158-0.174,0.275c-0.008,0.097-0.011,0.196,0,0.292   c0.021,0.175-0.042,0.337-0.2,0.362c-0.153,0.025-0.267-0.101-0.278-0.284c-0.002-0.048-0.051-0.055-0.09-0.014   c-0.293,0.975-0.035,2-0.167,2.993c-0.159,0.022-0.297-0.038-0.441,0.058c0,0.393,0,0.796,0,1.232c-0.308,0-0.596,0-0.883,0   c-0.057,0-0.149,0.009-0.149-0.05c0.002-0.275-0.2-0.18-0.328-0.18c-0.531,0.001-1.057,0.007-1.59,0.094   c-0.554,0.09-1.138-0.03-1.718,0.18c0,0.116,0,0.249,0,0.382c0,1.246,0,2.492,0,3.739c0,0.116,0.012,0.234-0.003,0.35   c-0.021,0.164-0.105,0.273-0.293,0.277c-0.091,0.002-0.194-0.042-0.289,0.053c0,0.376,0,0.764,0,1.151c0,0.564,0,1.129,0.001,1.694   c0,0.092-0.032,0.144-0.131,0.137c-0.067-0.004-0.111-0.038-0.102-0.105c0.08-0.597-0.135-1.168-0.126-1.764   c0.025-1.674,0.009-3.35,0.009-5.024c0-0.19,0-0.38,0-0.573c-0.444,0-0.848,0-1.292,0c0,0.662,0,1.314,0,1.959   c-0.211,0-0.381,0-0.591,0c0-0.238,0-0.462,0-0.703c-0.445,0-0.849,0-1.271,0c0-1.147,0-2.274-0.001-3.401   c0-0.017-0.01-0.035-0.021-0.049c-0.011-0.015-0.028-0.025-0.017-0.015c-0.584,0-1.144,0-1.722,0c0,2.178,0,4.334,0,6.498   c-0.167,0.021-0.426,0.07-0.432-0.03c-0.013-0.24-0.23-0.157-0.312-0.276c-0.114-0.166-0.056-0.334-0.063-0.5   c-0.014-0.311-0.004-0.623-0.004-0.935c0-0.5,0-1,0-1.519c-0.453,0-0.856,0-1.301,0c0-0.593,0-1.167,0-1.721   c-0.756,0-1.471,0-2.205,0c0,1.146-0.004,2.273,0.003,3.4c0.002,0.259-0.072,0.532,0.11,0.771c0.035,0.047-0.014,0.113-0.073,0.129   c-0.055,0.014-0.122,0.009-0.151-0.052c-0.092-0.186-0.129-0.378-0.128-0.591c0.008-1.909,0.005-3.817,0.005-5.726   c0-0.17,0-0.34,0-0.509c-0.836,0-1.629,0-2.463,0c0,1.092,0,2.172,0,3.271c-0.445,0-0.849,0-1.292,0c0,1.567,0,3.115,0,4.719   c-0.106-0.146-0.234-0.188-0.22-0.335c0.018-0.185-0.045-0.263-0.228-0.137c-0.153,0.105-0.193-0.064-0.228-0.132   c-0.04-0.077-0.009-0.189-0.009-0.287c0-0.383,0-0.767,0-1.168c-0.338,0-0.625,0-0.935,0c0-0.27,0.001-0.52,0-0.77   c-0.002-0.247-0.007-0.492-0.011-0.735c-0.301,0-0.554-0.002-0.807,0c-0.776,0.01-0.648,0.021-0.735-0.695   c-0.206,0-0.415,0-0.609,0c-0.177-0.262-0.133-0.632-0.431-0.777c-0.279-0.136-0.588-0.203-0.913-0.167   c0-0.376,0.003-0.706-0.002-1.036c-0.001-0.086,0.054-0.221-0.08-0.239c-0.128-0.017-0.16-0.063-0.154-0.18   c0.008-0.17,0.002-0.341,0.002-0.495c-0.057-0.021-0.073-0.031-0.091-0.032c-0.338-0.025-0.338-0.025-0.399-0.388   c-0.005-0.028-0.031-0.078-0.039-0.076c-0.308,0.064-0.218-0.335-0.476-0.395c-0.185-0.042-0.368-0.254-0.522-0.403   c-0.194-0.188-0.339-0.108-0.481-0.018c-0.235,0.149-0.434,0.356-0.672,0.5c-0.135,0.082-0.044,0.287-0.266,0.327   c-0.208,0.037-0.005,0.312-0.143,0.444c-0.124,0.006-0.255,0.013-0.426,0.021c0,0.235,0,0.46,0,0.678   c-0.134,0.009-0.226,0.015-0.358,0.024c0,1.839,0,3.658,0,5.458c-0.212,0-0.382,0-0.57,0c0-1.904,0-3.788,0-5.682   c-0.944,0-1.868,0-2.802,0c0,0.782,0,1.54,0,2.298c0,0.604,0.003,1.208-0.001,1.812c-0.002,0.376-0.049,0.417-0.437,0.423   c-0.192,0.004-0.384,0.001-0.562,0.001c-0.114,0.174-0.09,0.417-0.334,0.468c0.011,0.274-0.368,0.371-0.306,0.678   c0.026,0.131,0.004,0.272,0.004,0.408c0,1.106,0,2.214,0,3.361c-0.363,0-0.705,0-1.036,0c0,2.158,0,4.275,0,6.392   c27.658,0,55.301,0,82.926,0c0-2.146,0-4.263,0-6.383C83.968,48.604,83.875,48.594,83.747,48.579z"></path></g></svg>