<svg height='100px' width='100px'  fill="rgba(136, 200, 255, 1.00)" xmlns:x="http://ns.adobe.com/Extensibility/1.0/" xmlns:i="http://ns.adobe.com/AdobeIllustrator/10.0/" xmlns:graph="http://ns.adobe.com/Graphs/1.0/" xmlns="http://www.w3.org/2000/svg" xmlns:xlink="http://www.w3.org/1999/xlink" version="1.1" x="0px" y="0px" viewBox="0 0 100 100" style="enable-background:new 0 0 100 100;" xml:space="preserve"><g><g i:extraneous="self"><g><path d="M5273.1,2400.1v-2c0-2.8-5-4-9.7-4s-9.7,1.3-9.7,4v2c0,1.8,0.7,3.6,2,4.9l5,4.9c0.3,0.3,0.4,0.6,0.4,1v6.4     c0,0.4,0.2,0.7,0.6,0.8l2.9,0.9c0.5,0.1,1-0.2,1-0.8v-7.2c0-0.4,0.2-0.7,0.4-1l5.1-5C5272.4,2403.7,5273.1,2401.9,5273.1,2400.1z      M5263.4,2400c-4.8,0-7.4-1.3-7.5-1.8v0c0.1-0.5,2.7-1.8,7.5-1.8c4.8,0,7.3,1.3,7.5,1.8C5270.7,2398.7,5268.2,2400,5263.4,2400z"></path><path d="M5268.4,2410.3c-0.6,0-1,0.4-1,1c0,0.6,0.4,1,1,1h4.3c0.6,0,1-0.4,1-1c0-0.6-0.4-1-1-1H5268.4z"></path><path d="M5272.7,2413.7h-4.3c-0.6,0-1,0.4-1,1c0,0.6,0.4,1,1,1h4.3c0.6,0,1-0.4,1-1C5273.7,2414.1,5273.3,2413.7,5272.7,2413.7z"></path><path d="M5272.7,2417h-4.3c-0.6,0-1,0.4-1,1c0,0.6,0.4,1,1,1h4.3c0.6,0,1-0.4,1-1C5273.7,2417.5,5273.3,2417,5272.7,2417z"></path></g><g><path d="M50,20.5c-11,0-20,9-20,20v19c0,11,9,20,20,20s20-9,20-20v-19C70,29.5,61,20.5,50,20.5z M64.3,59.5     c0,7.9-6.4,14.3-14.3,14.3s-14.3-6.4-14.3-14.3v-19c0-7.9,6.4-14.3,14.3-14.3s14.3,6.4,14.3,14.3V59.5z"></path><path d="M50,32.4c-1.6,0-2.8,1.3-2.8,2.8v7.7c0,1.6,1.3,2.8,2.8,2.8s2.8-1.3,2.8-2.8v-7.7C52.8,33.7,51.6,32.4,50,32.4z"></path><path d="M54.9,85.8L50,90.7l-4.9-4.9c-1.1-1.1-2.9-1.1-4,0c-1.1,1.1-1.1,2.9,0,4l6.9,6.9c0.6,0.6,1.3,0.8,2,0.8s1.5-0.3,2-0.8     l6.9-6.9c1.1-1.1,1.1-2.9,0-4C57.8,84.7,56,84.7,54.9,85.8z"></path><path d="M45.1,14.2L50,9.3l4.9,4.9c0.6,0.6,1.3,0.8,2,0.8s1.5-0.3,2-0.8c1.1-1.1,1.1-2.9,0-4L52,3.3c-1.1-1.1-2.9-1.1-4,0     l-6.9,6.9c-1.1,1.1-1.1,2.9,0,4C42.2,15.3,44,15.3,45.1,14.2z"></path></g></g></g></svg>