<?xml version="1.0" encoding="UTF-8"?>
<!DOCTYPE svg PUBLIC "-//W3C//DTD SVG 1.1//EN" "http://www.w3.org/Graphics/SVG/1.1/DTD/svg11.dtd">
<svg xmlns="http://www.w3.org/2000/svg" xmlns:xlink="http://www.w3.org/1999/xlink" version="1.1" id="Calque_1" x="0px" y="0px" width="512px" height="512px" viewBox="0 0 512 512" enable-background="new 0 0 512 512" xml:space="preserve">
<g>
	<path opacity="0.8" fill="#7F7041" d="M381.699,268.553c-0.04,0.449-0.09,0.909-0.15,1.359c-0.569,5.13-1.47,10.21-2.68,15.21   c5.75,11.37,7.44,21.94,4.17,30.73c-3.97,10.63-14.65,17.25-29.86,19.94c-0.569,0.1-1.149,0.199-1.739,0.29   c-28.12,4.34-70.801-4.171-115.12-25.091c-44.41-20.949-79.76-49.33-96.68-74.979c-1.82-2.76-3.43-5.49-4.81-8.18   c-5.95-11.55-7.73-22.29-4.42-31.21c3.82-10.25,13.9-16.78,28.26-19.65c0.14-0.17,0.27-0.35,0.41-0.52   c6.47-8.15,13.83-15.34,21.89-21.49c-5.1,2.76-9.98,5.92-14.61,9.47h-0.39c-1.71,0.01-3.39,0.05-5.03,0.13   c-0.71,0.03-1.42,0.06-2.11,0.1c-23.35,1.44-39.93,9.38-45.36,23.96c-2.64,7.08-2.44,15.18,0.23,23.89c0.18,0.6,0.38,1.2,0.59,1.8   c0.13,0.38,0.27,0.76,0.4,1.14c0.14,0.38,0.29,0.77,0.43,1.15c2.08,5.39,5.04,10.98,8.81,16.69c2.5,3.79,5.35,7.64,8.54,11.51   c21.27,25.84,57.31,52.87,101.12,73.55c39.459,18.62,77.77,28.57,107.85,29.6c8.239,0.29,15.859-0.09,22.72-1.149   c18.3-2.83,31.15-10.45,35.82-22.95C405.589,308.753,398.35,289.053,381.699,268.553z"/>
	<path opacity="0.8" fill="#AFA688" d="M378.149,224.103c2,7.5,3.3,15.24,3.859,23.11c0.511,7.16,0.4,14.3-0.31,21.34   c-0.04,0.449-0.09,0.909-0.15,1.359c15.771,19.91,22.551,38.95,17.11,53.61c-4.62,12.44-17.41,20.01-35.62,22.8   c-6.4,0.98-13.47,1.37-21.09,1.16c-30.15-0.78-68.92-10.77-108.89-29.68c-43.52-20.61-79.35-47.49-100.58-73.18   c-3.24-3.93-6.14-7.82-8.67-11.66c-3.69-5.6-6.61-11.08-8.69-16.36c-0.14-0.38-0.29-0.77-0.43-1.15c-0.13-0.38-0.27-0.76-0.4-1.14   c-0.21-0.6-0.41-1.2-0.59-1.8c-2.76-8.78-3-16.93-0.36-24.04c5.42-14.59,22.05-22.48,45.49-23.81c0.69-0.04,1.4-0.07,2.11-0.1   c1.63-0.06,3.3-0.1,5-0.1c0.01-0.01,0.02-0.02,0.03-0.03c4.97-3.8,10.23-7.15,15.74-10.04l25.83-14.9   c-76.32-20.67-137.81-13.7-151.08,22.05c-11.43,30.79,15.7,75.41,65.96,117.2c4.97,4.13,10.16,8.24,15.57,12.301   c24.7,18.55,53.82,36.21,85.92,51.399c26.87,12.72,53.349,22.55,78.29,29.46c11.63,3.21,22.92,5.79,33.75,7.73   c61.31,10.989,108.2,1.5,119.59-29.181C467.81,317.402,435.659,268.422,378.149,224.103z"/>
	<g>
		<path opacity="0.6" fill="#AF7E36" d="M355.434,333.036c-3.201,4.029-6.625,7.832-10.24,11.385    c-4.836,4.756-10.016,9.078-15.488,12.932c-20.594,14.512-45.311,22.463-71.271,22.463c-17.466,0-34.369-3.59-50.246-10.66    c-4.842-2.164-9.571-4.646-14.056-7.387c-4.354-2.652-8.615-5.631-12.662-8.846c-4.235-3.365-8.22-6.969-11.93-10.791    c-18.961-19.506-30.897-44.59-34.043-72.072c-2.371-20.737,0.444-41.28,8.02-60.116c3.034-7.538,6.825-14.8,11.348-21.7    c2.083-3.178,4.323-6.275,6.719-9.284c23.627-29.727,58.984-46.78,97.006-46.78c28.213,0,54.824,9.302,76.957,26.894    c0.963,0.763,1.809,1.457,2.59,2.12c1.977,1.651,3.936,3.396,5.949,5.317c0.275,0.263,0.551,0.525,0.82,0.788    c21.77,21.157,34.93,49.495,37.102,79.916C384.223,278.211,374.783,308.688,355.434,333.036z"/>
		<g>
			<path fill="#FFC83C" d="M168.939,324.128c0.388-4.066,4.192-6.543,7.813-7.105c9.233-1.439,16.603,5.086,23.296,9.947     c8.126,5.898,16.559,13.43,26.581,16.119c3.072,0.832,6.012,0.738,7.757-1.627c1.801-2.451,1.27-4.641-0.381-7.656     c-5.405-9.877-14.469-17.484-22.727-24.705c-7.345-6.41-15.458-12.223-22.189-19.322c-3.527-3.709-7.106-7.846-9.508-12.48     c-2.046-3.94-4.36-10.873,1.07-14.307c12.924-8.151,26.393,5.579,34.568,12.868c5.75,5.124,11.698,9.991,17.81,14.677     c7.813,5.998,16.083,11.879,25.686,14.893c5.824,1.84,14.963,2.891,20.682-1.625c5.518-4.34-0.488-11.805-3.629-14.844     c-5.486-5.305-11.91-9.51-18.31-13.62c-6.375-4.11-12.437-8.414-18.486-12.974c-8.67-6.549-17.654-12.743-25.949-19.774     c-6.237-5.286-12.593-10.892-16.997-17.954c-2.903-4.654-6.049-11.173-3.291-17.222c2.659-5.83,8.896-9.152,14.72-8.588     c12.474,1.213,22.739,11.498,31.447,19.255c13.787,12.273,28.501,24.409,45.165,32.629c5.293,2.608,11.473,5.061,17.691,4.912     c1.678-0.039,4.041-0.264,4.299-2.416c0.205-1.714-0.17-3.446-0.67-4.998c-0.113-0.344-0.264-0.913-0.432-1.333     c-3.885-6.468-10.41-11.517-15.559-16.84c-6.35-6.569-13.461-13.337-17.49-21.826c-1.258-2.647-2.34-6.325-0.727-9.384     c1.865-3.535,5.52-5.049,9.121-5.348c7.871-0.658,13.662,3.108,19.736,7.1c3.354,2.203,6.82,4.541,10.98,5.055     c1.387,0.168,7.338,1.207,8.92,0.131c-0.006-0.037-0.006-0.069-0.02-0.112c-0.162-0.538-0.338-1.076-0.588-1.583     c-0.568-1.157-1.383-2.239-2.176-3.234c-2.053-2.577-4.387-4.892-6.875-7.031c-4.799-4.123-10.254-7.351-15.402-11.004     c-5.461-3.872-11.617-8.226-15.025-14.238c-2.879-5.086-4.086-12.792,1.201-17.747c4.848-4.536,12.209-3.396,17.459-1.946     c6.244,1.733,11.172,4.948,16.295,8.664c3.084,2.24,6.244,4.636,9.898,5.93c1.563,0.551,5.26,1.508,7.418,0.457     c-0.176-0.15-0.344-0.3-0.52-0.444c-0.75-0.632-1.545-1.289-2.457-2.008c-21.014-16.703-46.279-25.536-73.061-25.536     c-36.102,0-69.676,16.189-92.109,44.421c-19.536,24.579-28.332,55.3-24.766,86.496c3.354,29.34,17.266,55.795,39.354,75.094     c-2.039-2.277-3.972-4.648-5.724-7.17C170.748,331.753,168.552,328.2,168.939,324.128z"/>
			<path fill="#F6BE63" d="M337.268,168.538c-0.014-0.013-0.025-0.025-0.039-0.038c-8.105,6.587-18.271,1.289-24.947-3.441     c-6.799-4.811-13.631-10.196-22.738-10.14c-3.691,0.032-6.029,2.146-4.893,6.149c1.164,4.116,4.273,7.238,7.332,9.884     c10.152,8.764,22.852,14.37,31.152,25.279c2.848,3.735,6.42,10.072,1.408,14.557c-5.242,4.692-15.832,2.84-20.969,0.495     c-3.816-1.733-7.213-4.116-10.709-6.375c-2.941-1.883-6.318-4.172-10.053-4.266c-1.795-0.05-3.754,0.044-5.092,0.726     c-0.107,0.05-0.158,0.075-0.189,0.094c0,0.031,0,0.069-0.006,0.119c0.068-0.45,0.15,0.87,0.119,0.907     c0.182,0.688,0.42,1.364,0.707,2.015c0.525,1.169,1.563,2.852,2.459,4.141c2.67,3.848,5.754,7.382,8.906,10.797     c6.164,6.674,12.926,12.774,18.838,19.687c5.449,6.356,7.932,20.918-4.043,23.389c-6.279,1.302-12.893-0.582-18.453-2.716     c-8.633-3.308-16.652-8.206-24.078-13.536c-12.793-9.171-24.222-19.85-36.465-29.664c-4.811-3.866-9.977-7.92-16.021-9.796     c-3.584-1.12-11.079-0.913-10.635,5.136c0.426,5.736,4.736,11.141,8.408,14.938c7.583,7.857,16.184,14.539,24.936,21.001     c7.306,5.398,14.35,11.266,21.914,16.289c6.318,4.191,12.861,8.063,18.93,12.599c5.328,3.991,11.016,8.534,13.906,14.827     c2.646,5.793,2.672,13.486-3.66,17.891c-15.045,10.453-33.267,1.934-45.322-6.049c-7.644-5.055-14.97-10.779-21.932-16.734     c-5.199-4.434-10.096-9.246-15.627-13.28c-2.684-1.959-5.498-3.967-8.726-4.986c-1.771-0.563-5.412-1.139-7.144,0.238     c-0.645,0.499,0.425,2.952,1.02,4.021c1.357,2.465,2.983,4.755,4.735,6.919c5.424,6.744,12.543,12.293,19.618,18.305     c9.115,7.738,18.511,15.602,25.923,25.115c4.655,5.951,10.691,15.686,3.291,23.385c-7.388,7.684-17.36,3.703-24.429-0.35     c-9.452-5.412-17.709-12.486-26.849-18.35c-2.833-1.82-5.974-3.797-8.958-3.695c-0.694,0.031-2.202,0.256-2.452,0.355     c-0.188,0.076-0.325,0.145-0.438,0.207c0.006,0.438,0.013,0.299,0.239,0.945c1.294,3.658,4.19,6.963,6.756,9.889     c3.296,3.76,6.837,7.275,10.403,10.762c3.297,3.213,9.358,8.043,12.173,13.518c0.882,0.426,1.771,0.844,2.659,1.238     c15.07,6.713,31.122,10.121,47.699,10.121c36.103,0,69.671-16.189,92.103-44.414     C386.129,278.712,381.502,210.745,337.268,168.538z"/>
			<path opacity="0.1" d="M336.324,347.763c-6.307,5.398-13.102,10.107-20.289,14.094c-18.109,10.047-38.684,15.457-60.104,15.457     c-17.466,0-34.369-3.59-50.246-10.66c-4.842-2.164-9.572-4.646-14.057-7.387c-4.354-2.652-8.615-5.631-12.662-8.846     c-3.303-2.621-6.443-5.393-9.427-8.289c-20.419-19.844-33.268-45.904-36.545-74.574c-2.84-24.865,1.77-49.444,13.105-71.158     c3.121-5.98,6.762-11.748,10.891-17.241c-0.807,2.984-1.52,6.012-2.126,9.084c-0.495,2.477-0.926,4.985-1.283,7.513     c0,0.006,0,0.006,0,0.013c-0.926,6.475-1.401,13.093-1.401,19.818c0,56.276,33.324,104.77,81.317,126.809     c2.184,1.006,4.398,1.957,6.644,2.846c15.94,6.344,33.317,9.828,51.514,9.828c9.703,0,19.176-0.988,28.32-2.885h0.008     C325.563,351.04,331.018,349.552,336.324,347.763z"/>
			<path fill="#AF7E36" d="M379.506,244.712c-2.084-29.238-14.326-56.551-34.6-77.414c-1.084-1.113-2.189-2.215-3.322-3.291     c-2.014-1.921-3.973-3.666-5.949-5.317c-0.783-0.663-1.627-1.357-2.59-2.12c-22.133-17.591-48.744-26.894-76.957-26.894     c-38.022,0-73.379,17.053-97.007,46.78c-0.713,0.895-1.408,1.795-2.09,2.702c-4.128,5.493-7.77,11.26-10.891,17.241     c-11.335,21.714-15.946,46.292-13.105,71.158c3.278,28.67,16.126,54.73,36.545,74.574c2.984,2.896,6.124,5.668,9.427,8.289     c4.047,3.215,8.308,6.193,12.662,8.846c4.485,2.74,9.214,5.223,14.057,7.387c15.876,7.07,32.779,10.66,50.246,10.66     c21.42,0,41.994-5.41,60.104-15.457c7.188-3.986,13.982-8.695,20.289-14.094c6.01-5.135,11.572-10.898,16.607-17.229     C372.279,306.187,381.721,275.708,379.506,244.712z M139.213,266.851c-0.075-0.656-0.144-1.308-0.206-1.965     c-0.05-0.48-0.094-0.956-0.131-1.438c-0.038-0.388-0.069-0.771-0.094-1.158c-0.031-0.331-0.05-0.656-0.069-0.987     c-0.012-0.101-0.019-0.207-0.025-0.307c-0.019-0.313-0.037-0.632-0.056-0.951c-0.132-2.265-0.194-4.523-0.194-6.774     c0-0.239,0-0.488,0.006-0.727c0-0.25,0-0.487,0.006-0.731c0-0.27,0.006-0.532,0.006-0.801c0.006-0.075,0.006-0.144,0.006-0.219     c0.013-0.444,0.026-0.889,0.038-1.333c0-0.063,0.006-0.132,0.006-0.193c0.006-0.313,0.019-0.626,0.038-0.938     c0-0.051,0.006-0.095,0.006-0.145c0.012-0.331,0.025-0.663,0.043-0.994c0.025-0.425,0.044-0.851,0.076-1.276     c0.006-0.093,0.012-0.188,0.019-0.281c0.019-0.332,0.037-0.663,0.069-0.995c0.025-0.375,0.057-0.756,0.087-1.132     c0-0.031,0.006-0.062,0.006-0.094c0.044-0.506,0.088-1.014,0.138-1.52c0.056-0.544,0.112-1.088,0.175-1.633     c0.1-0.988,0.225-1.964,0.363-2.946c0.069-0.5,0.138-1,0.213-1.501c0.068-0.475,0.144-0.944,0.225-1.414     c0.107-0.639,0.213-1.283,0.326-1.92l0.15-0.788c0.043-0.263,0.094-0.526,0.15-0.782c0.05-0.281,0.106-0.557,0.163-0.832     c0.056-0.27,0.113-0.539,0.169-0.801c0.031-0.163,0.069-0.332,0.106-0.494c0.056-0.294,0.119-0.588,0.188-0.882     c0.063-0.3,0.131-0.595,0.2-0.888c0.081-0.35,0.163-0.707,0.25-1.064c0.106-0.444,0.213-0.888,0.332-1.332     c0.088-0.369,0.188-0.744,0.281-1.114c0.013-0.043,0.026-0.087,0.038-0.131v-0.006c0.513-1.934,1.076-3.86,1.689-5.762     c0.15-0.476,0.307-0.95,0.469-1.426c0.488-1.464,1.001-2.909,1.551-4.347c0.013-0.038,0.025-0.069,0.044-0.107     c0.144-0.395,0.3-0.8,0.463-1.195c0.181-0.469,0.369-0.932,0.557-1.395c0.319-0.788,0.651-1.57,0.995-2.352     c0.157-0.362,0.313-0.732,0.481-1.095c0.163-0.369,0.332-0.744,0.507-1.114c0.194-0.419,0.388-0.832,0.582-1.251     c0.194-0.413,0.394-0.832,0.6-1.245c0.2-0.412,0.407-0.825,0.613-1.232c0.188-0.375,0.375-0.744,0.563-1.114     c0.244-0.469,0.482-0.932,0.732-1.389c0.213-0.4,0.432-0.801,0.645-1.195c0.225-0.4,0.444-0.8,0.669-1.195     c0.024-0.043,0.05-0.094,0.075-0.138c0.006-0.012,0.018-0.03,0.031-0.043c0-0.006,0-0.006,0-0.013l0.582-1.014     c0.344-0.606,0.701-1.207,1.064-1.807c0.087-0.145,0.175-0.282,0.256-0.419c0.626-1.026,1.264-2.04,1.921-3.047     c0.225-0.35,0.45-0.694,0.688-1.038c0.225-0.344,0.457-0.688,0.694-1.025c0.232-0.345,0.463-0.683,0.707-1.027     c0.232-0.338,0.476-0.682,0.72-1.02c0.15-0.219,0.313-0.438,0.469-0.657c0.576-0.794,1.158-1.583,1.758-2.365     c0.25-0.331,0.5-0.663,0.763-0.995c0.256-0.332,0.513-0.657,0.775-0.988c22.433-28.232,56.007-44.421,92.109-44.421     c26.781,0,52.047,8.833,73.061,25.536c0.912,0.719,1.707,1.376,2.459,2.008c0.174,0.144,0.342,0.294,0.518,0.444     c-2.158,1.051-5.855,0.094-7.418-0.457c-3.654-1.294-6.813-3.69-9.898-5.93c-5.121-3.716-10.051-6.931-16.295-8.664     c-5.248-1.451-12.611-2.59-17.459,1.946c-5.287,4.955-4.078,12.661-1.201,17.747c3.408,6.012,9.564,10.366,15.025,14.238     c5.148,3.653,10.604,6.881,15.402,11.004c2.488,2.139,4.822,4.454,6.875,7.031c0.793,0.995,1.607,2.077,2.176,3.234     c0.25,0.507,0.426,1.045,0.588,1.583c0.014,0.043,0.014,0.075,0.02,0.112c-1.582,1.076-7.533,0.038-8.92-0.131     c-4.16-0.514-7.627-2.852-10.979-5.055c-6.076-3.991-11.867-7.758-19.738-7.1c-3.602,0.299-7.256,1.813-9.121,5.348     c-1.613,3.059-0.531,6.737,0.727,9.384c4.029,8.489,11.141,15.257,17.49,21.826c5.148,5.323,11.674,10.372,15.559,16.84     c0.17,0.419,0.318,0.989,0.432,1.333c0.5,1.552,0.875,3.284,0.67,4.998c-0.256,2.152-2.621,2.377-4.299,2.416     c-6.219,0.148-12.398-2.304-17.691-4.912c-16.664-8.22-31.378-20.355-45.165-32.629c-8.708-7.757-18.974-18.042-31.447-19.255     c-5.824-0.563-12.061,2.759-14.719,8.588c-2.759,6.049,0.387,12.568,3.29,17.222c4.404,7.063,10.76,12.668,16.997,17.954     c8.295,7.031,17.278,13.225,25.949,19.774c6.049,4.56,12.111,8.863,18.486,12.974c6.399,4.11,12.823,8.315,18.31,13.62     c3.141,3.039,9.146,10.504,3.629,14.844c-5.719,4.516-14.857,3.465-20.682,1.625c-9.602-3.014-17.873-8.895-25.686-14.893     c-6.112-4.686-12.061-9.553-17.81-14.677c-8.176-7.289-21.645-21.019-34.569-12.868c-5.43,3.434-3.116,10.366-1.07,14.307     c2.402,4.635,5.981,8.771,9.508,12.48c6.731,7.1,14.845,12.912,22.189,19.322c8.258,7.221,17.322,14.828,22.727,24.705     c1.651,3.016,2.183,5.205,0.381,7.656c-0.269,0.363-0.563,0.678-0.889,0.934c-0.131,0.105-0.263,0.199-0.394,0.287     c-0.263,0.176-0.538,0.318-0.825,0.438c-0.02,0.006-0.038,0.012-0.063,0.025c-0.288,0.111-0.582,0.201-0.889,0.27     c-0.006,0-0.006,0-0.013,0c-0.319,0.068-0.65,0.111-0.988,0.131c-0.163,0.012-0.337,0.02-0.507,0.02     c-1.013,0-2.096-0.182-3.19-0.477c-10.021-2.689-18.454-10.221-26.581-16.119c-6.693-4.861-14.062-11.387-23.296-9.947     c-0.193,0.029-0.381,0.063-0.575,0.105c-0.144,0.031-0.294,0.07-0.444,0.107c-0.019,0-0.038,0.006-0.057,0.012     c-0.031,0.006-0.069,0.02-0.1,0.025c-0.019,0.006-0.031,0.012-0.05,0.012c-0.013,0.008-0.025,0.008-0.038,0.012     c-0.112,0.031-0.231,0.07-0.344,0.107c-0.069,0.018-0.138,0.037-0.2,0.063c-0.013,0.006-0.025,0.006-0.038,0.014     c-0.006,0-0.019,0.006-0.025,0.012c-0.125,0.037-0.244,0.088-0.362,0.131c-0.013,0-0.032,0.006-0.044,0.014     c-0.025,0.012-0.05,0.018-0.075,0.031c-0.144,0.057-0.288,0.105-0.426,0.168c-0.006,0-0.006,0.006-0.013,0.006     c-0.369,0.17-0.731,0.352-1.082,0.559c-0.075,0.043-0.15,0.086-0.219,0.129c-0.138,0.088-0.275,0.176-0.407,0.27     c-0.031,0.02-0.056,0.039-0.087,0.063c-0.013,0.006-0.019,0.012-0.031,0.02c-0.163,0.113-0.319,0.23-0.47,0.355     c-0.131,0.107-0.263,0.221-0.387,0.34c-0.1,0.086-0.194,0.174-0.282,0.275c-0.05,0.043-0.1,0.092-0.144,0.143     c-0.006,0.006-0.012,0.012-0.019,0.02c-0.094,0.1-0.182,0.199-0.269,0.307c-0.101,0.117-0.201,0.242-0.295,0.367     c-0.006,0.014-0.019,0.021-0.024,0.033c-0.057,0.074-0.106,0.15-0.157,0.225c-0.038,0.051-0.069,0.1-0.1,0.15     c-0.063,0.094-0.119,0.188-0.175,0.287c-0.044,0.074-0.088,0.15-0.125,0.23c-0.043,0.082-0.082,0.158-0.119,0.238     c-0.082,0.156-0.15,0.32-0.213,0.488c-0.043,0.113-0.081,0.225-0.119,0.338c-0.019,0.068-0.043,0.137-0.063,0.207     c-0.019,0.068-0.043,0.137-0.056,0.205c-0.006,0.014-0.012,0.025-0.012,0.039c-0.02,0.082-0.038,0.168-0.057,0.256     c-0.025,0.125-0.05,0.25-0.069,0.381c-0.019,0.119-0.031,0.238-0.043,0.363c-0.388,4.072,1.808,7.625,3.903,10.646     c1.752,2.521,3.685,4.893,5.724,7.17C156.479,322.646,142.566,296.19,139.213,266.851z M348.033,326.644     c-0.236,0.307-0.482,0.605-0.725,0.9c-0.119,0.15-0.238,0.301-0.363,0.443c-0.125,0.15-0.25,0.301-0.369,0.451     c-0.488,0.594-0.988,1.184-1.488,1.764c-0.457,0.531-0.92,1.064-1.389,1.59c-0.045,0.051-0.082,0.094-0.127,0.137     c-0.256,0.289-0.506,0.57-0.77,0.852c-0.125,0.143-0.256,0.287-0.387,0.424c-0.125,0.139-0.256,0.275-0.389,0.42     c-0.492,0.533-0.988,1.059-1.488,1.578c-0.088,0.092-0.176,0.18-0.256,0.268c-0.508,0.514-1.008,1.025-1.521,1.533     c-0.512,0.506-1.025,1.006-1.537,1.5c-1.096,1.053-2.209,2.078-3.342,3.086c-0.563,0.5-1.133,0.994-1.707,1.488     c-0.545,0.463-1.088,0.92-1.641,1.377c-0.029,0.018-0.061,0.049-0.094,0.074c-0.529,0.438-1.068,0.863-1.6,1.289     c-0.014,0.006-0.02,0.018-0.033,0.023c-0.086,0.076-0.18,0.145-0.268,0.215c-0.545,0.43-1.094,0.85-1.645,1.27     c-0.133,0.092-0.258,0.193-0.389,0.293c-0.125,0.1-0.256,0.193-0.389,0.289c-0.256,0.193-0.518,0.387-0.781,0.58     c-0.1,0.076-0.193,0.145-0.301,0.219c-0.057,0.045-0.113,0.082-0.174,0.125c-0.533,0.383-1.064,0.77-1.609,1.146     c-0.293,0.205-0.594,0.412-0.893,0.617c-0.32,0.221-0.639,0.439-0.959,0.65c-0.469,0.32-0.943,0.633-1.418,0.939h-0.008     c-0.063,0.045-0.131,0.088-0.193,0.125c-0.406,0.275-0.818,0.533-1.232,0.789c-0.025,0.02-0.051,0.037-0.074,0.049     c-0.439,0.275-0.877,0.545-1.314,0.814c-0.932,0.568-1.871,1.125-2.822,1.664c-0.336,0.201-0.682,0.395-1.025,0.582     c-0.383,0.219-0.77,0.432-1.158,0.637c-0.443,0.244-0.893,0.488-1.344,0.721c-0.063,0.037-0.125,0.068-0.188,0.1     c-0.438,0.23-0.883,0.457-1.326,0.682c-0.369,0.193-0.744,0.383-1.121,0.563c-0.25,0.125-0.5,0.25-0.75,0.369     c-1.088,0.531-2.184,1.045-3.283,1.533c-0.289,0.131-0.582,0.262-0.877,0.389c-0.25,0.105-0.494,0.217-0.744,0.324     s-0.5,0.219-0.75,0.318c-0.037,0.02-0.076,0.033-0.113,0.051c-0.676,0.281-1.352,0.563-2.033,0.832     c-0.65,0.256-1.307,0.512-1.971,0.764c-0.082,0.031-0.156,0.063-0.236,0.088c-0.627,0.236-1.252,0.463-1.879,0.682     c-0.23,0.088-0.461,0.168-0.693,0.25c-0.455,0.156-0.912,0.313-1.377,0.469c-0.086,0.031-0.168,0.057-0.256,0.088     c-0.113,0.037-0.225,0.074-0.338,0.105c-0.281,0.096-0.57,0.189-0.857,0.281c-0.281,0.094-0.568,0.182-0.857,0.271     c-0.336,0.105-0.676,0.211-1.018,0.313c-0.34,0.098-0.676,0.199-1.021,0.299c-0.037,0.012-0.074,0.025-0.111,0.039h-0.006     c-0.076,0.025-0.156,0.043-0.232,0.068c-0.582,0.168-1.17,0.332-1.758,0.486c-0.664,0.182-1.332,0.357-2.002,0.525     c-0.299,0.082-0.6,0.158-0.9,0.227c-0.295,0.074-0.594,0.145-0.895,0.213c-0.15,0.037-0.295,0.074-0.439,0.105     c-1.176,0.27-2.357,0.525-3.539,0.764c-0.025,0.006-0.043,0.006-0.068,0.012c-0.309,0.063-0.613,0.119-0.92,0.176     c-0.389,0.082-0.77,0.15-1.158,0.219c-0.012,0-0.031,0.006-0.043,0.006c-0.131,0.025-0.264,0.051-0.4,0.07     c-0.506,0.092-1.02,0.182-1.539,0.262c-0.137,0.025-0.281,0.051-0.426,0.068c-0.318,0.051-0.639,0.102-0.963,0.15     c-0.318,0.051-0.645,0.102-0.963,0.145c-0.125,0.018-0.252,0.037-0.375,0.051c-0.434,0.061-0.871,0.117-1.309,0.174     c-0.164,0.025-0.326,0.043-0.488,0.063c-0.563,0.068-1.133,0.139-1.701,0.199c-0.207,0.02-0.406,0.045-0.613,0.064     c-0.551,0.057-1.1,0.111-1.658,0.156c-0.055,0.012-0.117,0.012-0.182,0.018c-0.174,0.02-0.35,0.031-0.525,0.045     c-0.043,0.006-0.086,0.006-0.131,0.012c-0.369,0.031-0.738,0.063-1.113,0.088c-0.088,0.006-0.176,0.012-0.264,0.02     c-0.018,0-0.037,0.006-0.055,0.006c-0.67,0.045-1.34,0.088-2.016,0.125c-0.057,0-0.111,0.006-0.174,0.006     c-0.363,0.018-0.727,0.039-1.096,0.051c-0.168,0.012-0.338,0.012-0.506,0.018c-0.32,0.02-0.639,0.031-0.963,0.039     c-0.246,0.004-0.488,0.012-0.732,0.018c-0.351,0.012-0.701,0.02-1.058,0.02c-0.619,0.012-1.245,0.018-1.87,0.018     c-16.578,0-32.63-3.408-47.7-10.121c-0.888-0.395-1.777-0.813-2.659-1.238c-2.815-5.475-8.877-10.305-12.173-13.518     c-3.566-3.486-7.107-7.002-10.403-10.762c-2.565-2.926-5.462-6.23-6.756-9.889c-0.226-0.646-0.232-0.508-0.238-0.945     c0.113-0.063,0.25-0.131,0.438-0.207c0.25-0.1,1.758-0.324,2.452-0.355c0.163-0.006,0.332-0.006,0.494,0.006     c0.101,0.006,0.2,0.012,0.307,0.02c0.1,0.006,0.207,0.018,0.307,0.031c0.006,0,0.019,0,0.024,0.004     c0.094,0.008,0.182,0.02,0.276,0.039c0.319,0.051,0.638,0.125,0.957,0.213c0.063,0.018,0.131,0.037,0.194,0.057     c0.006,0,0.006,0,0.012,0c0.037,0.006,0.075,0.02,0.112,0.031c0.219,0.068,0.444,0.143,0.669,0.23     c0.125,0.045,0.256,0.094,0.388,0.15c0.181,0.068,0.363,0.15,0.544,0.232c0.163,0.068,0.319,0.143,0.481,0.225     c0.326,0.156,0.657,0.332,0.982,0.506c0.182,0.102,0.363,0.201,0.544,0.307c0.363,0.207,0.726,0.426,1.083,0.645     c0.181,0.105,0.356,0.219,0.532,0.332c0.357,0.219,0.707,0.445,1.051,0.668c9.139,5.863,17.397,12.938,26.849,18.35     c7.069,4.053,17.041,8.033,24.429,0.35c0.15-0.156,0.3-0.318,0.438-0.482c0.206-0.23,0.4-0.461,0.576-0.693     c0.006-0.014,0.019-0.02,0.025-0.031c0.101-0.131,0.2-0.262,0.294-0.4c0.363-0.514,0.676-1.033,0.938-1.559     c0.063-0.119,0.125-0.244,0.182-0.369c0.375-0.818,0.638-1.656,0.8-2.494c0.031-0.145,0.056-0.283,0.075-0.426     c0.031-0.193,0.063-0.4,0.081-0.602c0.006-0.088,0.019-0.174,0.025-0.27c0.013-0.143,0.019-0.287,0.025-0.438     c0.006-0.176,0.012-0.35,0.012-0.525c0.006-5.568-3.678-11.158-6.762-15.096c-7.413-9.514-16.809-17.377-25.923-25.115     c-7.075-6.012-14.194-11.561-19.618-18.305c-1.752-2.164-3.378-4.454-4.735-6.919c-0.594-1.069-1.664-3.522-1.02-4.021     c1.733-1.377,5.374-0.801,7.144-0.238c3.228,1.02,6.042,3.027,8.727,4.986c5.53,4.034,10.428,8.847,15.627,13.28     c6.962,5.955,14.288,11.68,21.932,16.734c12.055,7.982,30.277,16.502,45.322,6.049c6.332-4.404,6.307-12.098,3.66-17.891     c-2.891-6.293-8.578-10.836-13.906-14.827c-6.068-4.535-12.611-8.407-18.929-12.599c-7.564-5.022-14.608-10.89-21.915-16.289     c-8.751-6.462-17.353-13.144-24.935-21.001c-3.672-3.797-7.982-9.202-8.408-14.938c-0.444-6.049,7.051-6.256,10.635-5.136     c6.043,1.876,11.21,5.93,16.021,9.796c12.242,9.814,23.671,20.493,36.464,29.664c7.426,5.33,15.445,10.228,24.078,13.536     c5.561,2.134,12.174,4.018,18.453,2.716c11.975-2.471,9.492-17.033,4.043-23.389c-5.912-6.912-12.674-13.012-18.836-19.687     c-3.152-3.416-6.238-6.95-8.908-10.797c-0.895-1.289-1.934-2.972-2.459-4.141c-0.287-0.651-0.525-1.327-0.707-2.015     c0.031-0.037-0.051-1.357-0.119-0.907c0.006-0.049,0.006-0.087,0.006-0.119c0.031-0.019,0.082-0.044,0.189-0.094     c1.338-0.682,3.297-0.775,5.092-0.726c3.734,0.094,7.113,2.383,10.053,4.266c3.496,2.259,6.893,4.642,10.709,6.375     c5.137,2.346,15.727,4.198,20.969-0.495c5.012-4.485,1.439-10.822-1.406-14.557c-8.303-10.91-21.002-16.515-31.154-25.279     c-3.059-2.646-6.168-5.768-7.332-9.884c-1.137-4.003,1.201-6.117,4.893-6.149c9.107-0.056,15.939,5.33,22.738,10.14     c6.676,4.729,16.842,10.028,24.947,3.441c0.014,0.013,0.025,0.025,0.039,0.038C381.502,210.745,386.129,278.712,348.033,326.644z     "/>
		</g>
	</g>
	<path fill="#AF7E36" d="M207.54,139.493l-25.83,14.9C189.709,148.382,198.379,143.382,207.54,139.493z"/>
</g>
<g id="Calque_2">
</g>

	<metadata>
		<rdf:RDF xmlns:rdf="http://www.w3.org/1999/02/22-rdf-syntax-ns#" xmlns:rdfs="http://www.w3.org/2000/01/rdf-schema#" xmlns:dc="http://purl.org/dc/elements/1.1/">
			<rdf:Description about="https://iconscout.com/legal#licenses" dc:title="Saturn" dc:description="Saturn" dc:publisher="Iconscout" dc:date="2017-06-13" dc:format="image/svg+xml" dc:language="en">
				<dc:creator>
					<rdf:Bag>
						<rdf:li>Iconika Store</rdf:li>
					</rdf:Bag>
				</dc:creator>
			</rdf:Description>
		</rdf:RDF>
    </metadata></svg>
