<?xml version="1.0" encoding="UTF-8"?>
<!DOCTYPE svg PUBLIC "-//W3C//DTD SVG 1.1//EN" "http://www.w3.org/Graphics/SVG/1.1/DTD/svg11.dtd">
<svg xmlns="http://www.w3.org/2000/svg" xmlns:xlink="http://www.w3.org/1999/xlink" version="1.1" id="Calque_1" x="0px" y="0px" width="512px" height="512px" viewBox="0 0 512 512" enable-background="new 0 0 512 512" xml:space="preserve">
<g>
	<g>
		<path opacity="0.6" fill="#358091" d="M386.476,361.51c-3.929,4.942-8.127,9.607-12.563,13.967    c-5.932,5.833-12.286,11.136-19,15.863c-25.264,17.804-55.586,27.558-87.434,27.558c-21.427,0-42.163-4.404-61.64-13.077    c-5.939-2.655-11.742-5.701-17.244-9.063c-5.342-3.255-10.568-6.907-15.533-10.852c-5.196-4.129-10.084-8.55-14.635-13.238    c-23.261-23.929-37.903-54.702-41.764-88.415c-2.908-25.44,0.545-50.642,9.839-73.749c3.722-9.248,8.373-18.157,13.921-26.622    c2.556-3.898,5.303-7.697,8.242-11.389c28.985-36.468,72.36-57.388,119.004-57.388c34.611,0,67.258,11.412,94.409,32.992    c1.182,0.936,2.218,1.788,3.178,2.601c2.425,2.026,4.826,4.167,7.297,6.523c0.339,0.322,0.677,0.645,1.006,0.967    c26.706,25.954,42.853,60.718,45.516,98.038C421.792,294.252,410.212,331.642,386.476,361.51z"/>
		<g>
			<path fill="#3DC3E3" d="M157.69,350.582c0.476-4.988,5.142-8.027,9.585-8.718c11.327-1.766,20.368,6.239,28.579,12.202     c9.969,7.236,20.314,16.477,32.608,19.775c3.768,1.021,7.375,0.906,9.516-1.995c2.21-3.008,1.558-5.693-0.468-9.394     c-6.631-12.117-17.75-21.449-27.881-30.306c-9.01-7.865-18.963-14.995-27.221-23.705c-4.328-4.551-8.718-9.624-11.665-15.31     c-2.51-4.835-5.349-13.339,1.312-17.552c15.855-9.999,32.378,6.845,42.408,15.786c7.053,6.286,14.351,12.256,21.849,18.004     c9.585,7.359,19.73,14.574,31.511,18.271c7.146,2.257,18.357,3.546,25.372-1.995c6.768-5.324-0.599-14.48-4.451-18.21     c-6.73-6.508-14.612-11.665-22.463-16.707c-7.82-5.043-15.257-10.322-22.678-15.916c-10.637-8.035-21.657-15.633-31.833-24.258     c-7.651-6.485-15.448-13.361-20.851-22.025c-3.561-5.709-7.421-13.707-4.037-21.127c3.262-7.152,10.913-11.227,18.058-10.536     c15.302,1.488,27.896,14.105,38.579,23.622c16.914,15.056,34.964,29.944,55.409,40.028c6.492,3.2,14.074,6.208,21.703,6.025     c2.057-0.047,4.957-0.323,5.271-2.963c0.253-2.103-0.207-4.229-0.821-6.132c-0.138-0.422-0.322-1.121-0.529-1.635     c-4.766-7.935-12.77-14.128-19.086-20.659c-7.789-8.058-16.515-16.361-21.457-26.775c-1.542-3.247-2.87-7.759-0.891-11.512     c2.287-4.336,6.77-6.193,11.189-6.561c9.654-0.807,16.76,3.813,24.212,8.709c4.114,2.702,8.365,5.571,13.469,6.201     c1.703,0.207,9.002,1.481,10.943,0.161c-0.007-0.045-0.007-0.084-0.023-0.138c-0.199-0.66-0.414-1.32-0.721-1.942     c-0.698-1.419-1.696-2.747-2.671-3.967c-2.518-3.162-5.38-6.001-8.434-8.626c-5.887-5.057-12.578-9.017-18.895-13.499     c-6.699-4.75-14.251-10.092-18.433-17.466c-3.531-6.239-5.012-15.694,1.473-21.772c5.948-5.564,14.979-4.167,21.419-2.387     c7.659,2.126,13.706,6.07,19.991,10.629c3.783,2.748,7.659,5.687,12.142,7.275c1.918,0.675,6.453,1.85,9.101,0.561     c-0.215-0.184-0.422-0.368-0.637-0.545c-0.921-0.775-1.896-1.581-3.016-2.463c-25.778-20.49-56.773-31.326-89.628-31.326     c-44.289,0-85.476,19.861-112.996,54.495c-23.966,30.152-34.756,67.84-30.382,106.111c4.114,35.992,21.181,68.446,48.278,92.121     c-2.501-2.793-4.873-5.701-7.021-8.795C159.908,359.937,157.214,355.577,157.69,350.582z"/>
			<path fill="#6ECEED" d="M364.189,159.708c-0.016-0.016-0.031-0.031-0.047-0.046c-9.945,8.082-22.416,1.581-30.604-4.221     c-8.342-5.901-16.722-12.509-27.896-12.44c-4.528,0.039-7.397,2.633-6.001,7.543c1.428,5.05,5.242,8.88,8.993,12.125     c12.456,10.752,28.034,17.628,38.218,31.012c3.492,4.582,7.875,12.356,1.728,17.858c-6.432,5.756-19.424,3.484-25.725,0.607     c-4.681-2.126-8.848-5.05-13.138-7.821c-3.607-2.31-7.751-5.119-12.333-5.234c-2.201-0.061-4.604,0.054-6.246,0.891     c-0.131,0.061-0.192,0.092-0.23,0.115c0,0.039,0,0.085-0.008,0.146c0.084-0.552,0.184,1.067,0.146,1.113     c0.223,0.844,0.515,1.673,0.867,2.472c0.645,1.434,1.918,3.499,3.017,5.08c3.276,4.72,7.06,9.056,10.927,13.246     c7.561,8.188,15.855,15.671,23.108,24.15c6.685,7.797,9.73,25.663-4.958,28.694c-7.705,1.597-15.817-0.714-22.639-3.331     c-10.59-4.06-20.429-10.067-29.539-16.606c-15.694-11.251-29.715-24.351-44.733-36.391c-5.901-4.743-12.24-9.716-19.654-12.018     c-4.397-1.374-13.591-1.12-13.046,6.3c0.522,7.037,5.81,13.667,10.314,18.326c9.302,9.639,19.854,17.835,30.59,25.763     c8.963,6.623,17.604,13.821,26.883,19.982c7.752,5.143,15.779,9.893,23.223,15.456c6.538,4.896,13.514,10.469,17.061,18.189     c3.246,7.105,3.276,16.545-4.49,21.947c-18.456,12.824-40.812,2.371-55.601-7.421c-9.377-6.2-18.364-13.223-26.906-20.528     c-6.377-5.44-12.386-11.343-19.17-16.292c-3.292-2.403-6.745-4.866-10.705-6.117c-2.172-0.69-6.639-1.396-8.764,0.292     c-0.791,0.613,0.522,3.622,1.251,4.935c1.665,3.023,3.66,5.832,5.809,8.487c6.654,8.273,15.387,15.08,24.066,22.454     c11.182,9.494,22.708,19.141,31.802,30.813c5.71,7.299,13.116,19.24,4.037,28.688c-9.063,9.424-21.296,4.542-29.968-0.43     c-11.596-6.639-21.726-15.318-32.938-22.51c-3.476-2.233-7.329-4.658-10.989-4.535c-0.852,0.039-2.702,0.314-3.008,0.438     c-0.23,0.092-0.399,0.176-0.538,0.253c0.008,0.538,0.016,0.368,0.292,1.159c1.588,4.489,5.141,8.542,8.288,12.133     c4.044,4.611,8.388,8.925,12.762,13.2c4.044,3.943,11.481,9.868,14.934,16.584c1.083,0.521,2.172,1.036,3.262,1.519     c18.487,8.235,38.179,12.417,58.516,12.417c44.289,0,85.469-19.86,112.989-54.486     C424.132,294.867,418.454,211.486,364.189,159.708z"/>
			<path opacity="0.1" d="M363.031,379.575c-7.736,6.623-16.07,12.4-24.889,17.289c-22.216,12.326-47.457,18.964-73.733,18.964     c-21.427,0-42.163-4.405-61.64-13.077c-5.94-2.655-11.742-5.701-17.244-9.063c-5.341-3.254-10.568-6.906-15.533-10.851     c-4.052-3.216-7.904-6.615-11.565-10.169c-25.049-24.343-40.812-56.313-44.833-91.484c-3.484-30.504,2.172-60.657,16.078-87.294     c3.829-7.337,8.296-14.412,13.36-21.15c-0.99,3.661-1.865,7.375-2.609,11.144c-0.606,3.039-1.136,6.116-1.574,9.217     c0,0.007,0,0.007,0,0.016c-1.135,7.942-1.718,16.062-1.718,24.312c0,69.038,40.88,128.528,99.757,155.564     c2.679,1.235,5.395,2.402,8.15,3.492c19.554,7.781,40.874,12.057,63.198,12.057c11.903,0,23.522-1.213,34.741-3.538h0.009     C349.831,383.596,356.522,381.77,363.031,379.575z"/>
			<path fill="#358091" d="M416.005,253.157c-2.555-35.869-17.573-69.375-42.445-94.968c-1.328-1.366-2.686-2.717-4.075-4.037     c-2.471-2.356-4.872-4.498-7.298-6.523c-0.96-0.813-1.995-1.665-3.178-2.601c-27.15-21.58-59.797-32.992-94.408-32.992     c-46.645,0-90.02,20.92-119.005,57.388c-0.875,1.098-1.727,2.203-2.563,3.315c-5.064,6.738-9.531,13.813-13.36,21.15     c-13.906,26.638-19.562,56.79-16.078,87.294c4.021,35.171,19.784,67.142,44.833,91.484c3.661,3.554,7.513,6.953,11.565,10.169     c4.965,3.944,10.191,7.597,15.533,10.851c5.502,3.362,11.304,6.408,17.244,9.063c19.477,8.672,40.213,13.077,61.64,13.077     c26.276,0,51.518-6.638,73.733-18.964c8.818-4.889,17.152-10.666,24.889-17.289c7.374-6.3,14.197-13.369,20.375-21.135     C407.142,328.572,418.723,291.183,416.005,253.157z M121.222,280.316c-0.092-0.806-0.176-1.604-0.253-2.41     c-0.062-0.59-0.115-1.174-0.161-1.764c-0.046-0.477-0.084-0.945-0.115-1.421c-0.038-0.406-0.061-0.806-0.084-1.212     c-0.015-0.123-0.023-0.254-0.031-0.376c-0.022-0.384-0.045-0.775-0.069-1.167c-0.162-2.778-0.238-5.549-0.238-8.311     c0-0.293,0-0.599,0.008-0.891c0-0.307,0-0.599,0.008-0.897c0-0.331,0.008-0.653,0.008-0.982c0.007-0.093,0.007-0.177,0.007-0.269     c0.016-0.545,0.031-1.09,0.046-1.635c0-0.077,0.008-0.162,0.008-0.238c0.008-0.383,0.023-0.768,0.046-1.15     c0-0.063,0.008-0.116,0.008-0.178c0.015-0.406,0.031-0.813,0.053-1.22c0.031-0.521,0.054-1.043,0.093-1.566     c0.007-0.114,0.015-0.23,0.022-0.345c0.023-0.407,0.046-0.813,0.084-1.221c0.031-0.46,0.069-0.928,0.107-1.389     c0-0.038,0.008-0.076,0.008-0.116c0.054-0.621,0.107-1.243,0.169-1.864c0.069-0.668,0.138-1.335,0.215-2.003     c0.123-1.212,0.276-2.409,0.445-3.614c0.084-0.614,0.169-1.228,0.261-1.841c0.084-0.583,0.176-1.159,0.276-1.734     c0.131-0.783,0.261-1.574,0.399-2.356l0.184-0.967c0.053-0.322,0.115-0.645,0.184-0.959c0.062-0.345,0.131-0.684,0.2-1.021     c0.069-0.331,0.138-0.661,0.207-0.982c0.039-0.2,0.084-0.407,0.13-0.606c0.069-0.36,0.146-0.722,0.23-1.082     c0.077-0.368,0.161-0.729,0.246-1.09c0.1-0.43,0.2-0.867,0.307-1.305c0.13-0.544,0.261-1.089,0.407-1.634     c0.108-0.453,0.23-0.913,0.345-1.366c0.016-0.053,0.031-0.107,0.046-0.161v-0.007c0.629-2.372,1.32-4.735,2.072-7.068     c0.184-0.583,0.376-1.166,0.576-1.75c0.598-1.795,1.228-3.568,1.903-5.333c0.016-0.046,0.031-0.085,0.054-0.131     c0.176-0.484,0.369-0.982,0.568-1.466c0.223-0.575,0.453-1.144,0.683-1.711c0.391-0.967,0.798-1.926,1.22-2.885     c0.192-0.445,0.384-0.898,0.591-1.343c0.2-0.453,0.407-0.913,0.622-1.366c0.238-0.514,0.476-1.021,0.714-1.535     c0.238-0.506,0.483-1.021,0.736-1.527c0.246-0.506,0.499-1.012,0.752-1.512c0.23-0.46,0.46-0.913,0.69-1.366     c0.3-0.576,0.591-1.143,0.898-1.703c0.261-0.491,0.53-0.983,0.791-1.466c0.276-0.491,0.545-0.981,0.821-1.466     c0.03-0.053,0.062-0.115,0.092-0.169c0.007-0.015,0.022-0.038,0.038-0.053c0-0.008,0-0.008,0-0.016l0.714-1.244     c0.422-0.744,0.86-1.48,1.305-2.217c0.107-0.177,0.215-0.346,0.314-0.514c0.768-1.259,1.55-2.502,2.356-3.738     c0.276-0.43,0.552-0.852,0.844-1.273c0.276-0.422,0.56-0.844,0.852-1.258c0.285-0.423,0.568-0.837,0.867-1.259     c0.284-0.415,0.584-0.836,0.883-1.251c0.184-0.268,0.383-0.537,0.575-0.806c0.707-0.975,1.42-1.941,2.157-2.901     c0.307-0.406,0.614-0.813,0.937-1.22c0.314-0.407,0.629-0.806,0.951-1.212c27.52-34.634,68.708-54.495,112.996-54.495     c32.854,0,63.85,10.836,89.628,31.326c1.12,0.882,2.095,1.688,3.017,2.463c0.214,0.177,0.421,0.361,0.637,0.545     c-2.648,1.289-7.184,0.115-9.102-0.561c-4.482-1.588-8.357-4.527-12.142-7.275c-6.284-4.559-12.332-8.503-19.991-10.629     c-6.438-1.78-15.471-3.177-21.419,2.387c-6.484,6.078-5.003,15.533-1.473,21.772c4.182,7.375,11.733,12.716,18.434,17.466     c6.315,4.482,13.007,8.442,18.894,13.499c3.054,2.625,5.917,5.464,8.434,8.626c0.975,1.22,1.973,2.548,2.671,3.967     c0.307,0.622,0.521,1.282,0.721,1.942c0.017,0.053,0.017,0.092,0.023,0.138c-1.941,1.32-9.24,0.046-10.943-0.161     c-5.104-0.63-9.354-3.499-13.468-6.201c-7.452-4.896-14.559-9.517-24.213-8.709c-4.42,0.368-8.902,2.225-11.189,6.561     c-1.979,3.752-0.651,8.265,0.891,11.512c4.942,10.414,13.668,18.717,21.457,26.775c6.316,6.531,14.32,12.724,19.086,20.659     c0.208,0.514,0.392,1.213,0.529,1.635c0.614,1.903,1.074,4.029,0.821,6.132c-0.313,2.64-3.215,2.916-5.271,2.963     c-7.629,0.183-15.211-2.825-21.703-6.025c-20.444-10.083-38.495-24.972-55.409-40.028c-10.683-9.517-23.276-22.133-38.579-23.622     c-7.145-0.691-14.795,3.384-18.057,10.536c-3.385,7.421,0.476,15.418,4.036,21.127c5.403,8.664,13.2,15.541,20.851,22.025     c10.176,8.625,21.196,16.223,31.833,24.258c7.421,5.594,14.857,10.873,22.678,15.916c7.851,5.042,15.732,10.199,22.463,16.707     c3.853,3.729,11.219,12.886,4.451,18.21c-7.015,5.541-18.226,4.252-25.372,1.995c-11.78-3.697-21.925-10.912-31.511-18.271     c-7.498-5.748-14.795-11.718-21.848-18.004c-10.03-8.941-26.553-25.785-42.408-15.786c-6.661,4.213-3.822,12.717-1.312,17.552     c2.947,5.686,7.337,10.759,11.665,15.31c8.258,8.71,18.211,15.84,27.221,23.705c10.13,8.856,21.25,18.188,27.881,30.306     c2.025,3.7,2.678,6.386,0.468,9.394c-0.33,0.445-0.69,0.83-1.09,1.144c-0.161,0.131-0.322,0.245-0.483,0.354     c-0.322,0.215-0.66,0.391-1.013,0.536c-0.023,0.009-0.046,0.016-0.077,0.031c-0.353,0.138-0.714,0.246-1.09,0.33     c-0.008,0-0.008,0-0.016,0c-0.392,0.084-0.798,0.138-1.212,0.162c-0.199,0.015-0.414,0.022-0.622,0.022     c-1.243,0-2.571-0.223-3.914-0.584c-12.294-3.299-22.639-12.539-32.608-19.775c-8.211-5.963-17.251-13.968-28.579-12.202     c-0.238,0.037-0.468,0.076-0.706,0.13c-0.176,0.038-0.36,0.085-0.544,0.131c-0.023,0-0.046,0.008-0.069,0.015     c-0.039,0.008-0.084,0.024-0.123,0.031c-0.023,0.008-0.038,0.015-0.061,0.015c-0.016,0.009-0.031,0.009-0.046,0.016     c-0.138,0.038-0.284,0.084-0.422,0.131c-0.084,0.022-0.169,0.046-0.245,0.077c-0.016,0.007-0.031,0.007-0.046,0.016     c-0.008,0-0.023,0.007-0.031,0.015c-0.154,0.046-0.299,0.107-0.445,0.16c-0.016,0-0.039,0.009-0.054,0.017     c-0.031,0.015-0.061,0.022-0.092,0.038c-0.176,0.069-0.354,0.13-0.522,0.207c-0.008,0-0.008,0.008-0.016,0.008     c-0.453,0.207-0.897,0.43-1.328,0.684c-0.092,0.054-0.184,0.106-0.269,0.16c-0.168,0.107-0.337,0.215-0.499,0.33     c-0.038,0.023-0.068,0.047-0.107,0.077c-0.016,0.007-0.023,0.015-0.039,0.022c-0.2,0.139-0.391,0.284-0.576,0.438     c-0.161,0.131-0.322,0.27-0.476,0.415c-0.123,0.106-0.238,0.215-0.345,0.338c-0.062,0.054-0.123,0.114-0.177,0.176     c-0.007,0.007-0.015,0.016-0.023,0.023c-0.115,0.123-0.223,0.246-0.33,0.376c-0.123,0.146-0.246,0.299-0.361,0.452     c-0.007,0.016-0.023,0.024-0.03,0.039c-0.069,0.092-0.13,0.185-0.192,0.276c-0.046,0.062-0.084,0.123-0.123,0.184     c-0.077,0.115-0.146,0.23-0.214,0.354c-0.054,0.092-0.108,0.184-0.154,0.283c-0.053,0.1-0.1,0.192-0.146,0.292     c-0.1,0.191-0.184,0.392-0.261,0.599c-0.054,0.139-0.1,0.276-0.146,0.415c-0.023,0.084-0.053,0.168-0.077,0.253     c-0.023,0.084-0.053,0.168-0.069,0.253c-0.008,0.015-0.015,0.03-0.015,0.046c-0.023,0.101-0.046,0.208-0.069,0.314     c-0.031,0.153-0.062,0.308-0.085,0.469c-0.022,0.146-0.038,0.291-0.053,0.445c-0.476,4.995,2.218,9.354,4.789,13.061     c2.149,3.094,4.52,6.002,7.022,8.795C142.403,348.763,125.336,316.309,121.222,280.316z M377.397,353.667     c-0.292,0.376-0.592,0.744-0.891,1.104c-0.146,0.185-0.292,0.369-0.445,0.545c-0.153,0.185-0.307,0.369-0.452,0.553     c-0.599,0.729-1.213,1.451-1.827,2.164c-0.561,0.652-1.128,1.305-1.703,1.949c-0.055,0.063-0.101,0.115-0.154,0.169     c-0.314,0.354-0.621,0.698-0.944,1.044c-0.153,0.176-0.314,0.354-0.475,0.521c-0.154,0.169-0.315,0.338-0.477,0.515     c-0.605,0.652-1.212,1.297-1.826,1.935c-0.107,0.114-0.215,0.222-0.314,0.329c-0.622,0.629-1.235,1.259-1.865,1.88     c-0.629,0.622-1.258,1.235-1.888,1.842c-1.343,1.29-2.71,2.548-4.099,3.784c-0.69,0.613-1.389,1.22-2.095,1.826     c-0.668,0.567-1.335,1.128-2.011,1.688c-0.038,0.022-0.076,0.062-0.115,0.092c-0.651,0.537-1.312,1.059-1.964,1.581     c-0.016,0.008-0.023,0.022-0.039,0.03c-0.107,0.092-0.223,0.177-0.329,0.262c-0.669,0.529-1.343,1.044-2.019,1.558     c-0.161,0.114-0.314,0.237-0.477,0.36c-0.153,0.123-0.314,0.237-0.476,0.354c-0.314,0.237-0.637,0.476-0.959,0.713     c-0.123,0.093-0.237,0.178-0.368,0.269c-0.069,0.054-0.139,0.1-0.215,0.153c-0.652,0.469-1.306,0.944-1.973,1.405     c-0.36,0.253-0.729,0.506-1.097,0.759c-0.392,0.27-0.783,0.538-1.175,0.798c-0.576,0.392-1.158,0.775-1.741,1.152h-0.009     c-0.077,0.054-0.161,0.107-0.237,0.153c-0.499,0.337-1.005,0.652-1.513,0.967c-0.029,0.023-0.061,0.046-0.091,0.061     c-0.538,0.339-1.075,0.669-1.612,0.999c-1.144,0.698-2.294,1.381-3.461,2.041c-0.414,0.246-0.837,0.483-1.258,0.714     c-0.47,0.269-0.944,0.529-1.421,0.782c-0.545,0.299-1.097,0.599-1.649,0.883c-0.077,0.046-0.153,0.085-0.23,0.122     c-0.537,0.284-1.082,0.562-1.627,0.837c-0.452,0.238-0.913,0.469-1.374,0.69c-0.307,0.153-0.613,0.308-0.921,0.452     c-1.335,0.653-2.678,1.282-4.028,1.881c-0.354,0.161-0.714,0.322-1.075,0.477c-0.306,0.13-0.605,0.268-0.913,0.399     c-0.307,0.13-0.613,0.268-0.921,0.391c-0.045,0.023-0.092,0.039-0.138,0.062c-0.829,0.346-1.657,0.69-2.494,1.021     c-0.798,0.313-1.604,0.628-2.417,0.936c-0.101,0.038-0.192,0.076-0.292,0.107c-0.768,0.291-1.535,0.567-2.303,0.836     c-0.283,0.108-0.567,0.208-0.853,0.308c-0.559,0.191-1.119,0.384-1.688,0.575c-0.107,0.038-0.207,0.069-0.314,0.107     c-0.139,0.046-0.276,0.092-0.414,0.13c-0.346,0.116-0.699,0.231-1.052,0.346c-0.346,0.115-0.698,0.223-1.052,0.331     c-0.414,0.13-0.829,0.261-1.25,0.384c-0.415,0.121-0.829,0.245-1.252,0.367c-0.045,0.016-0.091,0.031-0.138,0.047h-0.007     c-0.093,0.031-0.192,0.053-0.285,0.084c-0.714,0.208-1.435,0.407-2.156,0.599c-0.813,0.223-1.635,0.438-2.455,0.645     c-0.368,0.1-0.737,0.192-1.105,0.276c-0.361,0.092-0.729,0.177-1.098,0.262c-0.184,0.045-0.36,0.092-0.538,0.129     c-1.442,0.33-2.892,0.645-4.342,0.937c-0.031,0.008-0.054,0.008-0.085,0.016c-0.377,0.077-0.752,0.146-1.128,0.215     c-0.476,0.101-0.944,0.185-1.42,0.269c-0.016,0-0.038,0.008-0.054,0.008c-0.161,0.03-0.322,0.062-0.491,0.085     c-0.621,0.114-1.251,0.223-1.889,0.322c-0.168,0.03-0.345,0.062-0.521,0.083c-0.392,0.063-0.784,0.124-1.183,0.185     c-0.391,0.062-0.79,0.124-1.182,0.178c-0.153,0.022-0.308,0.046-0.46,0.062c-0.53,0.075-1.067,0.146-1.604,0.214     c-0.2,0.031-0.399,0.054-0.599,0.077c-0.691,0.084-1.39,0.169-2.088,0.245c-0.253,0.023-0.498,0.054-0.751,0.077     c-0.676,0.069-1.351,0.138-2.034,0.191c-0.068,0.016-0.146,0.016-0.223,0.023c-0.215,0.022-0.43,0.038-0.645,0.054     c-0.055,0.008-0.107,0.008-0.161,0.016c-0.453,0.038-0.905,0.077-1.366,0.107c-0.107,0.007-0.215,0.015-0.322,0.023     c-0.022,0-0.046,0.007-0.068,0.007c-0.822,0.055-1.643,0.107-2.472,0.154c-0.069,0-0.138,0.007-0.215,0.007     c-0.445,0.022-0.89,0.047-1.344,0.062c-0.206,0.016-0.414,0.016-0.62,0.023c-0.393,0.022-0.783,0.038-1.183,0.046     c-0.3,0.007-0.599,0.016-0.897,0.022c-0.431,0.015-0.86,0.023-1.298,0.023c-0.76,0.016-1.527,0.022-2.294,0.022     c-20.338,0-40.03-4.182-58.517-12.417c-1.09-0.482-2.18-0.997-3.262-1.519c-3.454-6.716-10.89-12.641-14.934-16.584     c-4.375-4.275-8.718-8.589-12.762-13.2c-3.146-3.591-6.7-7.644-8.288-12.133c-0.276-0.791-0.285-0.621-0.292-1.159     c0.138-0.077,0.307-0.161,0.537-0.253c0.307-0.123,2.157-0.398,3.008-0.438c0.2-0.007,0.407-0.007,0.606,0.008     c0.123,0.007,0.246,0.015,0.376,0.023c0.123,0.008,0.253,0.022,0.376,0.038c0.008,0,0.023,0,0.03,0.007     c0.116,0.009,0.223,0.023,0.338,0.047c0.391,0.062,0.783,0.153,1.174,0.262c0.077,0.021,0.161,0.045,0.238,0.068     c0.007,0,0.007,0,0.015,0c0.046,0.007,0.092,0.023,0.138,0.038c0.269,0.085,0.545,0.177,0.821,0.284     c0.154,0.054,0.314,0.115,0.477,0.184c0.222,0.084,0.445,0.185,0.667,0.284c0.2,0.085,0.392,0.177,0.591,0.276     c0.399,0.191,0.806,0.407,1.205,0.622c0.223,0.123,0.445,0.245,0.667,0.375c0.445,0.254,0.891,0.522,1.328,0.791     c0.223,0.13,0.438,0.269,0.652,0.407c0.438,0.268,0.867,0.545,1.29,0.82c11.212,7.191,21.342,15.871,32.938,22.51     c8.672,4.972,20.905,9.854,29.968,0.43c0.185-0.192,0.368-0.392,0.538-0.592c0.253-0.283,0.491-0.567,0.706-0.852     c0.008-0.016,0.023-0.023,0.031-0.038c0.123-0.161,0.246-0.322,0.36-0.492c0.445-0.629,0.829-1.266,1.151-1.91     c0.077-0.146,0.153-0.3,0.223-0.453c0.46-1.005,0.783-2.033,0.982-3.062c0.039-0.177,0.069-0.346,0.092-0.522     c0.039-0.237,0.077-0.49,0.1-0.736c0.008-0.107,0.023-0.214,0.031-0.33c0.016-0.177,0.023-0.354,0.031-0.538     c0.007-0.215,0.015-0.429,0.015-0.645c0.008-6.83-4.512-13.689-8.296-18.518c-9.094-11.672-20.62-21.318-31.802-30.813     c-8.679-7.374-17.413-14.181-24.066-22.454c-2.149-2.655-4.144-5.464-5.809-8.487c-0.729-1.313-2.042-4.321-1.251-4.935     c2.125-1.688,6.592-0.982,8.764-0.292c3.96,1.251,7.413,3.714,10.706,6.117c6.784,4.949,12.793,10.852,19.17,16.292     c8.541,7.306,17.528,14.328,26.906,20.528c14.789,9.792,37.144,20.245,55.6,7.421c7.767-5.402,7.736-14.842,4.49-21.947     c-3.546-7.721-10.522-13.293-17.061-18.189c-7.443-5.563-15.471-10.313-23.222-15.456c-9.279-6.161-17.92-13.359-26.884-19.982     c-10.736-7.928-21.288-16.124-30.589-25.763c-4.505-4.658-9.792-11.289-10.314-18.326c-0.545-7.42,8.649-7.674,13.046-6.3     c7.414,2.302,13.752,7.275,19.654,12.018c15.018,12.04,29.039,25.14,44.733,36.391c9.11,6.539,18.949,12.546,29.539,16.606     c6.822,2.617,14.934,4.928,22.639,3.331c14.688-3.031,11.643-20.896,4.958-28.694c-7.253-8.479-15.548-15.962-23.107-24.15     c-3.867-4.19-7.651-8.526-10.928-13.246c-1.098-1.581-2.371-3.646-3.016-5.08c-0.354-0.798-0.646-1.627-0.868-2.472     c0.039-0.046-0.062-1.666-0.146-1.113c0.008-0.061,0.008-0.107,0.008-0.146c0.038-0.023,0.1-0.054,0.23-0.115     c1.643-0.836,4.045-0.952,6.247-0.891c4.581,0.115,8.726,2.924,12.332,5.234c4.29,2.771,8.457,5.694,13.138,7.821     c6.301,2.877,19.294,5.149,25.725-0.607c6.147-5.502,1.765-13.276-1.727-17.858c-10.185-13.383-25.763-20.26-38.219-31.012     c-3.751-3.246-7.565-7.076-8.993-12.125c-1.396-4.911,1.473-7.504,6.001-7.543c11.174-0.069,19.554,6.539,27.896,12.44     c8.188,5.802,20.659,12.302,30.604,4.221c0.016,0.016,0.031,0.031,0.047,0.046C418.454,211.486,424.132,294.867,377.397,353.667z     "/>
		</g>
	</g>
	<path opacity="0.8" fill="#9CB1B7" d="M480.679,130.627c-22.24-43.7-104.181-48.76-198.92-17.64   c23.42,2.61,45.63,10.59,65.43,23.52c34.01-1.18,59.71,7.6,69.439,26.71c7.32,14.39,4.58,32.65-6.159,52.24   c-18.721,34.13-61.73,72.279-118.101,100.979c-56.48,28.74-112.75,41.061-151.37,36.021c-22.04-2.87-38.33-11.38-45.63-25.721   c-9.43-18.529-2.18-43.47,17.36-69.39c0.92-22.22,6.68-43.8,16.94-63.46c0.73-1.41,1.49-2.8,2.28-4.19   c-79.52,57.95-122.67,126.34-100.63,169.64c18.12,35.6,75.86,45.55,147.87,31.189c39.64-7.899,83.62-23.18,127.68-45.6   c44.351-22.57,82.79-49.33,112.59-76.93C473.059,218.397,498.738,166.097,480.679,130.627z"/>
</g>

	<metadata>
		<rdf:RDF xmlns:rdf="http://www.w3.org/1999/02/22-rdf-syntax-ns#" xmlns:rdfs="http://www.w3.org/2000/01/rdf-schema#" xmlns:dc="http://purl.org/dc/elements/1.1/">
			<rdf:Description about="https://iconscout.com/legal#licenses" dc:title="Uranus" dc:description="Uranus" dc:publisher="Iconscout" dc:date="2017-06-13" dc:format="image/svg+xml" dc:language="en">
				<dc:creator>
					<rdf:Bag>
						<rdf:li>Iconika Store</rdf:li>
					</rdf:Bag>
				</dc:creator>
			</rdf:Description>
		</rdf:RDF>
    </metadata></svg>
