<?xml version="1.0" encoding="UTF-8"?>
<!DOCTYPE svg PUBLIC "-//W3C//DTD SVG 1.1//EN" "http://www.w3.org/Graphics/SVG/1.1/DTD/svg11.dtd">
<svg xmlns="http://www.w3.org/2000/svg" xmlns:xlink="http://www.w3.org/1999/xlink" version="1.1" id="Calque_1" x="0px" y="0px" width="512px" height="512px" viewBox="0 0 512 512" enable-background="new 0 0 512 512" xml:space="preserve">
<g>
	<path opacity="0.6" fill="#892F36" d="M412.948,381.15c-5.12,6.438-10.59,12.52-16.37,18.199   c-7.729,7.601-16.01,14.511-24.76,20.67c-32.92,23.2-72.431,35.91-113.931,35.91c-27.92,0-54.938-5.739-80.32-17.04   c-7.738-3.46-15.3-7.43-22.47-11.812c-6.96-4.238-13.77-9-20.24-14.14c-6.77-5.381-13.14-11.143-19.068-17.25   c-30.312-31.183-49.392-71.28-54.42-115.21c-3.79-33.15,0.71-65.99,12.818-96.103c4.852-12.05,10.91-23.657,18.142-34.688   c3.33-5.08,6.908-10.03,10.738-14.84c37.771-47.521,94.29-74.78,155.07-74.78c45.101,0,87.641,14.87,123.021,42.99   c1.54,1.22,2.892,2.33,4.142,3.39c3.16,2.64,6.29,5.43,9.51,8.5c0.44,0.42,0.881,0.84,1.311,1.26   c34.802,33.82,55.842,79.12,59.312,127.75C458.97,293.51,443.88,342.23,412.948,381.15z"/>
	<g>
		<path fill="#AE363C" d="M114.829,366.91c0.62-6.5,6.698-10.46,12.488-11.36c14.762-2.3,26.54,8.132,37.24,15.9    c12.99,9.43,26.47,21.47,42.49,25.771c4.91,1.328,9.61,1.181,12.399-2.602c2.881-3.92,2.029-7.42-0.609-12.24    c-8.641-15.79-23.13-27.948-36.33-39.488c-11.74-10.25-24.71-19.54-35.47-30.892c-5.642-5.93-11.36-12.54-15.2-19.95    c-3.271-6.3-6.97-17.38,1.71-22.868c20.66-13.029,42.188,8.92,55.26,20.568c9.19,8.19,18.7,15.972,28.47,23.46    c12.49,9.59,25.71,18.99,41.063,23.812c9.31,2.938,23.92,4.62,33.06-2.602c8.82-6.938-0.777-18.87-5.8-23.729    c-8.77-8.48-19.04-15.2-29.27-21.771c-10.19-6.568-19.88-13.448-29.552-20.738c-13.858-10.472-28.22-20.369-41.479-31.609    c-9.97-8.45-20.13-17.41-27.17-28.7c-4.64-7.438-9.67-17.858-5.26-27.53c4.25-9.317,14.22-14.63,23.528-13.729    c19.94,1.938,36.352,18.38,50.271,30.78c22.04,19.619,45.56,39.02,72.199,52.157c8.46,4.173,18.342,8.092,28.279,7.853    c2.681-0.063,6.46-0.42,6.87-3.86c0.33-2.738-0.271-5.51-1.069-7.988c-0.181-0.552-0.421-1.462-0.688-2.132    c-6.21-10.34-16.642-18.408-24.87-26.92c-10.147-10.5-21.52-21.317-27.96-34.89c-2.01-4.23-3.74-10.11-1.16-15    c2.98-5.65,8.82-8.07,14.58-8.55c12.58-1.051,21.84,4.97,31.55,11.35c5.36,3.521,10.9,7.26,17.551,8.08    c2.222,0.271,11.729,1.93,14.262,0.21c-0.012-0.06-0.012-0.109-0.03-0.18c-0.26-0.86-0.54-1.721-0.939-2.53    c-0.91-1.85-2.211-3.58-3.479-5.17c-3.28-4.12-7.01-7.82-10.99-11.24c-7.67-6.59-16.39-11.75-24.62-17.59    c-8.729-6.188-18.567-13.148-24.02-22.76c-4.601-8.13-6.53-20.45,1.92-28.37c7.75-7.25,19.52-5.43,27.91-3.11    c9.979,2.771,17.857,7.91,26.05,13.853c4.93,3.58,9.979,7.409,15.82,9.479c2.5,0.88,8.408,2.41,11.857,0.73    c-0.279-0.24-0.55-0.48-0.83-0.71c-1.199-1.013-2.47-2.063-3.93-3.21c-33.59-26.7-73.979-40.82-116.791-40.82    c-57.71,0-111.38,25.88-147.24,71.01c-31.229,39.29-45.29,88.4-39.59,138.271c5.36,46.898,27.602,89.188,62.91,120.04    c-3.26-3.642-6.35-7.432-9.148-11.46C117.719,379.1,114.209,373.42,114.829,366.91z"/>
		<path fill="#D15055" d="M383.908,118.246c-0.021-0.021-0.04-0.04-0.061-0.061c-12.96,10.528-29.21,2.061-39.88-5.5    c-10.87-7.689-21.79-16.3-36.352-16.21c-5.898,0.051-9.641,3.431-7.818,9.83c1.858,6.58,6.83,11.568,11.72,15.8    c16.229,14.011,36.53,22.971,49.8,40.41c4.551,5.971,10.261,16.101,2.25,23.271c-8.38,7.5-25.31,4.54-33.52,0.79    c-6.102-2.771-11.53-6.58-17.12-10.188c-4.7-3.012-10.102-6.672-16.07-6.82c-2.869-0.079-6,0.07-8.14,1.16    c-0.17,0.08-0.25,0.12-0.3,0.148c0,0.051,0,0.11-0.012,0.189c0.109-0.72,0.239,1.391,0.189,1.45c0.29,1.101,0.67,2.181,1.13,3.221    c0.84,1.869,2.5,4.56,3.931,6.619c4.271,6.148,9.199,11.801,14.239,17.261c9.851,10.67,20.66,20.42,30.11,31.47    c8.71,10.16,12.68,33.439-6.46,37.392c-10.04,2.08-20.61-0.932-29.5-4.34c-13.801-5.29-26.62-13.12-38.49-21.642    c-20.45-14.66-38.72-31.729-58.29-47.42c-7.689-6.181-15.95-12.66-25.61-15.66c-5.729-1.79-17.71-1.46-17,8.21    c0.683,9.17,7.57,17.812,13.44,23.88c12.119,12.562,25.869,23.24,39.859,33.57c11.68,8.63,22.938,18.01,35.028,26.039    c10.103,6.7,20.563,12.891,30.262,20.141c8.521,6.382,17.608,13.642,22.229,23.701c4.229,9.26,4.271,21.561-5.851,28.601    c-24.051,16.71-53.182,3.09-72.449-9.67c-12.222-8.08-23.931-17.23-35.063-26.75c-8.311-7.091-16.14-14.78-24.979-21.23    c-4.289-3.13-8.789-6.34-13.949-7.97c-2.83-0.899-8.648-1.82-11.42,0.38c-1.03,0.8,0.68,4.721,1.63,6.431    c2.17,3.939,4.771,7.602,7.569,11.062c8.67,10.779,20.051,19.648,31.358,29.26c14.57,12.37,29.592,24.939,41.44,40.149    c7.438,9.511,17.09,25.069,5.26,37.381c-11.811,12.279-27.75,5.92-39.05-0.562c-15.11-8.648-28.31-19.961-42.921-29.329    c-4.529-2.91-9.549-6.069-14.319-5.91c-1.108,0.051-3.521,0.41-3.92,0.568c-0.3,0.12-0.521,0.23-0.699,0.33    c0.011,0.7,0.021,0.479,0.382,1.511c2.067,5.852,6.697,11.131,10.799,15.812c5.271,6.01,10.931,11.63,16.631,17.199    c5.27,5.141,14.959,12.858,19.459,21.608c1.41,0.683,2.83,1.353,4.25,1.98c24.091,10.729,49.75,16.18,76.25,16.18    c57.711,0,111.371-25.88,147.229-71C462.02,294.365,454.618,185.716,383.908,118.246z"/>
		<path opacity="0.1" enable-background="new    " d="M382.4,404.69c-10.08,8.63-20.938,16.159-32.431,22.529    c-28.95,16.061-61.84,24.71-96.08,24.71c-27.92,0-54.938-5.739-80.32-17.04c-7.738-3.46-15.3-7.432-22.47-11.812    c-6.96-4.24-13.77-9-20.24-14.14c-5.278-4.19-10.3-8.62-15.068-13.25c-32.642-31.723-53.182-73.381-58.42-119.21    c-4.54-39.75,2.83-79.04,20.948-113.75c4.99-9.563,10.812-18.78,17.41-27.563c-1.29,4.771-2.43,9.61-3.398,14.521    c-0.79,3.96-1.48,7.97-2.052,12.01c0,0.01,0,0.01,0,0.021c-1.479,10.351-2.238,20.931-2.238,31.681    c0,89.96,53.27,167.479,129.988,202.71c3.49,1.608,7.03,3.13,10.62,4.55c25.48,10.14,53.263,15.71,82.352,15.71    c15.511,0,30.649-1.58,45.271-4.61h0.011C365.198,409.93,373.92,407.55,382.4,404.69z"/>
		<path fill="#892F36" d="M451.43,239.96c-3.33-46.737-22.899-90.397-55.312-123.75c-1.729-1.777-3.5-3.54-5.311-5.26    c-3.22-3.07-6.351-5.86-9.51-8.5c-1.25-1.06-2.602-2.17-4.142-3.39c-35.38-28.12-77.92-42.99-123.021-42.99    c-60.78,0-117.3,27.26-155.07,74.78c-1.14,1.43-2.25,2.87-3.34,4.317c-6.6,8.78-12.42,18-17.41,27.563    c-18.12,34.71-25.488,74-20.948,113.75c5.238,45.829,25.778,87.489,58.42,119.21c4.77,4.63,9.79,9.06,15.068,13.25    c6.472,5.14,13.28,9.897,20.24,14.14c7.17,4.382,14.73,8.352,22.47,11.812c25.38,11.301,52.4,17.04,80.32,17.04    c34.24,0,67.13-8.649,96.08-24.71c11.488-6.37,22.351-13.899,32.431-22.529c9.609-8.21,18.5-17.421,26.55-27.54    C439.88,338.23,454.97,289.51,451.43,239.96z M67.31,275.35c-0.12-1.052-0.229-2.09-0.33-3.142c-0.08-0.77-0.148-1.528-0.21-2.3    c-0.06-0.62-0.108-1.229-0.148-1.851c-0.052-0.529-0.08-1.052-0.11-1.579c-0.02-0.16-0.03-0.33-0.04-0.49    c-0.03-0.5-0.06-1.01-0.09-1.521c-0.21-3.62-0.312-7.229-0.312-10.829c0-0.383,0-0.78,0.012-1.16c0-0.4,0-0.78,0.01-1.17    c0-0.433,0.01-0.853,0.01-1.28c0.01-0.12,0.01-0.23,0.01-0.35c0.021-0.71,0.04-1.423,0.062-2.133c0-0.1,0.01-0.21,0.01-0.31    c0.01-0.5,0.03-1,0.062-1.5c0-0.08,0.01-0.15,0.01-0.23c0.02-0.527,0.04-1.06,0.068-1.59c0.04-0.68,0.07-1.357,0.12-2.04    c0.012-0.147,0.021-0.3,0.03-0.447c0.03-0.53,0.061-1.063,0.11-1.593c0.04-0.6,0.09-1.21,0.14-1.81c0-0.05,0.01-0.1,0.01-0.15    c0.07-0.81,0.142-1.618,0.222-2.43c0.09-0.87,0.18-1.74,0.278-2.61c0.16-1.578,0.36-3.14,0.58-4.71c0.11-0.8,0.221-1.6,0.34-2.397    c0.11-0.76,0.23-1.51,0.36-2.26c0.17-1.021,0.34-2.053,0.521-3.07l0.239-1.26c0.07-0.42,0.15-0.843,0.24-1.25    c0.08-0.45,0.17-0.893,0.26-1.33c0.09-0.433,0.182-0.86,0.271-1.28c0.05-0.26,0.108-0.53,0.17-0.79    c0.09-0.47,0.188-0.939,0.3-1.41c0.1-0.479,0.21-0.95,0.32-1.42c0.13-0.56,0.26-1.13,0.398-1.7c0.17-0.71,0.34-1.42,0.53-2.13    c0.14-0.59,0.3-1.188,0.45-1.779c0.02-0.068,0.04-0.141,0.06-0.211v-0.01c0.82-3.09,1.722-6.17,2.7-9.21    c0.24-0.76,0.49-1.52,0.75-2.28c0.78-2.34,1.6-4.647,2.48-6.947c0.02-0.063,0.04-0.11,0.068-0.17c0.23-0.633,0.48-1.28,0.74-1.91    c0.29-0.75,0.59-1.49,0.89-2.23c0.512-1.26,1.04-2.51,1.591-3.76c0.25-0.58,0.5-1.17,0.771-1.75c0.26-0.59,0.53-1.19,0.81-1.78    c0.312-0.67,0.62-1.33,0.932-2c0.31-0.66,0.63-1.33,0.96-1.988c0.319-0.659,0.648-1.319,0.979-1.972    c0.301-0.6,0.602-1.188,0.9-1.778c0.39-0.75,0.77-1.489,1.17-2.222c0.34-0.64,0.69-1.278,1.03-1.91    c0.358-0.64,0.71-1.277,1.068-1.908c0.04-0.069,0.08-0.149,0.12-0.222c0.011-0.02,0.03-0.05,0.05-0.067c0-0.013,0-0.013,0-0.021    l0.932-1.62c0.55-0.97,1.12-1.93,1.7-2.89c0.14-0.23,0.278-0.45,0.408-0.67c1-1.642,2.021-3.261,3.07-4.87    c0.36-0.562,0.72-1.11,1.101-1.66c0.359-0.55,0.729-1.1,1.109-1.64c0.37-0.551,0.74-1.091,1.13-1.643    c0.37-0.54,0.761-1.09,1.15-1.63c0.24-0.35,0.5-0.699,0.75-1.05c0.92-1.271,1.85-2.53,2.81-3.78c0.4-0.527,0.801-1.06,1.222-1.59    c0.408-0.529,0.818-1.05,1.238-1.58c35.86-45.13,89.53-71.01,147.24-71.01c42.813,0,83.2,14.12,116.79,40.82    c1.46,1.147,2.729,2.197,3.931,3.21c0.279,0.229,0.55,0.47,0.83,0.71c-3.45,1.68-9.36,0.147-11.86-0.73    c-5.84-2.068-10.89-5.897-15.818-9.479c-8.189-5.94-16.069-11.08-26.05-13.853c-8.392-2.317-20.16-4.14-27.91,3.11    c-8.45,7.92-6.521,20.24-1.92,28.37c5.45,9.607,15.29,16.568,24.021,22.76c8.229,5.84,16.949,11,24.619,17.59    c3.979,3.42,7.711,7.12,10.99,11.24c1.271,1.59,2.568,3.32,3.479,5.17c0.399,0.811,0.682,1.67,0.939,2.53    c0.021,0.067,0.021,0.12,0.028,0.18c-2.528,1.72-12.038,0.062-14.26-0.21c-6.648-0.82-12.188-4.56-17.55-8.08    c-9.71-6.38-18.971-12.398-31.551-11.35c-5.76,0.479-11.6,2.897-14.58,8.55c-2.579,4.89-0.85,10.77,1.16,15    c6.44,13.57,17.811,24.39,27.96,34.89c8.229,8.511,18.66,16.58,24.87,26.92c0.271,0.67,0.51,1.58,0.688,2.131    c0.8,2.479,1.399,5.25,1.069,7.989c-0.409,3.44-4.189,3.8-6.869,3.86c-9.938,0.239-19.82-3.68-28.28-7.853    c-26.64-13.14-50.159-32.539-72.199-52.157c-13.92-12.4-30.33-28.843-50.271-30.78c-9.31-0.9-19.278,4.41-23.528,13.729    c-4.41,9.671,0.618,20.093,5.26,27.53c7.04,11.29,17.2,20.25,27.17,28.7c13.26,11.24,27.62,21.14,41.479,31.609    c9.67,7.29,19.36,14.17,29.552,20.738c10.229,6.57,20.5,13.29,29.27,21.771c5.021,4.857,14.62,16.79,5.801,23.729    c-9.141,7.222-23.75,5.54-33.061,2.602c-15.352-4.819-28.57-14.222-41.063-23.812c-9.77-7.488-19.278-15.27-28.47-23.46    c-13.07-11.648-34.6-33.6-55.26-20.568c-8.681,5.488-4.98,16.568-1.71,22.868c3.84,7.41,9.56,14.021,15.2,19.95    c10.76,11.352,23.729,20.642,35.47,30.892c13.2,11.54,27.688,23.698,36.33,39.488c2.64,4.82,3.49,8.32,0.608,12.24    c-0.43,0.58-0.898,1.08-1.42,1.49c-0.21,0.17-0.42,0.318-0.63,0.46c-0.42,0.279-0.858,0.51-1.318,0.699    c-0.03,0.011-0.062,0.021-0.102,0.04c-0.46,0.181-0.93,0.318-1.42,0.431c-0.01,0-0.01,0-0.02,0c-0.512,0.109-1.04,0.18-1.58,0.21    c-0.262,0.021-0.54,0.03-0.812,0.03c-1.62,0-3.35-0.29-5.1-0.763c-16.021-4.3-29.5-16.34-42.49-25.77    c-10.7-7.771-22.479-18.2-37.24-15.9c-0.31,0.052-0.608,0.103-0.92,0.171c-0.229,0.051-0.47,0.109-0.71,0.171    c-0.03,0-0.06,0.011-0.09,0.021c-0.05,0.01-0.11,0.03-0.16,0.04c-0.03,0.01-0.05,0.021-0.08,0.021    c-0.02,0.011-0.04,0.011-0.06,0.021c-0.182,0.05-0.37,0.109-0.55,0.17c-0.11,0.03-0.222,0.062-0.32,0.102    c-0.021,0.01-0.04,0.01-0.062,0.021c-0.01,0-0.028,0.01-0.039,0.021c-0.199,0.062-0.391,0.142-0.579,0.211    c-0.021,0-0.052,0.01-0.07,0.021c-0.04,0.021-0.08,0.029-0.12,0.05c-0.23,0.09-0.46,0.17-0.68,0.271    c-0.012,0-0.012,0.011-0.021,0.011c-0.59,0.271-1.17,0.561-1.729,0.89c-0.12,0.07-0.24,0.142-0.352,0.21    c-0.22,0.142-0.438,0.28-0.648,0.432c-0.052,0.029-0.091,0.061-0.142,0.101c-0.02,0.011-0.028,0.021-0.05,0.029    c-0.26,0.181-0.51,0.37-0.75,0.569c-0.21,0.171-0.42,0.352-0.62,0.54c-0.16,0.141-0.31,0.279-0.45,0.439    c-0.079,0.069-0.158,0.149-0.229,0.229c-0.01,0.011-0.021,0.021-0.03,0.029c-0.148,0.16-0.29,0.32-0.43,0.49    c-0.16,0.188-0.32,0.39-0.47,0.59c-0.012,0.021-0.03,0.03-0.04,0.05c-0.092,0.12-0.17,0.24-0.25,0.36    c-0.062,0.08-0.11,0.16-0.16,0.239c-0.102,0.148-0.19,0.301-0.28,0.46c-0.07,0.12-0.14,0.239-0.2,0.37    c-0.068,0.13-0.13,0.25-0.188,0.38c-0.13,0.25-0.24,0.511-0.34,0.779c-0.07,0.182-0.132,0.359-0.19,0.54    c-0.03,0.109-0.07,0.221-0.1,0.329c-0.03,0.11-0.07,0.222-0.092,0.33c-0.01,0.021-0.02,0.04-0.02,0.062    c-0.03,0.131-0.061,0.271-0.09,0.409c-0.04,0.199-0.08,0.399-0.11,0.609c-0.03,0.189-0.05,0.38-0.069,0.58    c-0.619,6.51,2.891,12.189,6.239,17.021c2.8,4.029,5.892,7.819,9.15,11.461C94.91,364.54,72.669,322.25,67.31,275.35z     M401.118,370.93c-0.38,0.488-0.771,0.971-1.158,1.438c-0.19,0.24-0.382,0.479-0.58,0.71c-0.2,0.24-0.399,0.479-0.592,0.72    c-0.778,0.95-1.578,1.893-2.38,2.82c-0.729,0.852-1.47,1.7-2.22,2.54c-0.07,0.08-0.131,0.149-0.2,0.22    c-0.41,0.46-0.811,0.91-1.229,1.36c-0.2,0.229-0.41,0.46-0.62,0.68c-0.199,0.222-0.409,0.44-0.62,0.67    c-0.789,0.853-1.579,1.69-2.38,2.521c-0.142,0.147-0.279,0.29-0.409,0.43c-0.811,0.82-1.61,1.642-2.431,2.45    c-0.819,0.81-1.642,1.609-2.46,2.399c-1.75,1.681-3.53,3.318-5.34,4.931c-0.9,0.8-1.812,1.59-2.73,2.38    c-0.869,0.74-1.739,1.47-2.619,2.2c-0.051,0.029-0.101,0.08-0.148,0.119c-0.852,0.7-1.71,1.381-2.562,2.061    c-0.021,0.01-0.03,0.03-0.051,0.04c-0.14,0.12-0.29,0.229-0.43,0.34c-0.87,0.69-1.75,1.36-2.632,2.03    c-0.21,0.149-0.408,0.31-0.618,0.47c-0.2,0.16-0.41,0.312-0.62,0.46c-0.41,0.313-0.83,0.62-1.25,0.932    c-0.16,0.12-0.312,0.229-0.479,0.351c-0.091,0.069-0.181,0.13-0.28,0.2c-0.85,0.609-1.698,1.229-2.568,1.83    c-0.47,0.329-0.95,0.659-1.432,0.989c-0.51,0.351-1.021,0.698-1.528,1.04c-0.75,0.51-1.51,1.01-2.271,1.5h-0.011    c-0.1,0.068-0.21,0.141-0.31,0.198c-0.65,0.44-1.312,0.852-1.972,1.262c-0.04,0.028-0.08,0.061-0.12,0.079    c-0.698,0.439-1.398,0.869-2.101,1.301c-1.489,0.91-2.989,1.801-4.51,2.66c-0.54,0.318-1.09,0.63-1.642,0.931    c-0.608,0.35-1.229,0.688-1.851,1.02c-0.71,0.392-1.43,0.78-2.149,1.15c-0.101,0.06-0.198,0.109-0.3,0.159    c-0.7,0.37-1.41,0.73-2.12,1.091c-0.59,0.312-1.188,0.609-1.79,0.899c-0.398,0.2-0.8,0.398-1.198,0.59    c-1.74,0.851-3.49,1.67-5.25,2.45c-0.462,0.21-0.932,0.42-1.4,0.62c-0.399,0.17-0.79,0.35-1.189,0.521    c-0.398,0.17-0.8,0.351-1.198,0.51c-0.062,0.03-0.12,0.052-0.182,0.08c-1.08,0.45-2.16,0.899-3.25,1.33    c-1.04,0.409-2.09,0.819-3.148,1.22c-0.13,0.052-0.25,0.102-0.38,0.142c-1,0.38-2,0.74-3,1.09c-0.37,0.141-0.74,0.271-1.11,0.4    c-0.729,0.25-1.46,0.5-2.199,0.75c-0.141,0.05-0.271,0.09-0.41,0.14c-0.181,0.061-0.358,0.12-0.54,0.17    c-0.448,0.15-0.908,0.301-1.37,0.45c-0.448,0.148-0.908,0.29-1.368,0.431c-0.54,0.17-1.08,0.34-1.632,0.5    c-0.538,0.159-1.078,0.319-1.63,0.479c-0.061,0.021-0.12,0.04-0.181,0.061h-0.01c-0.12,0.04-0.25,0.069-0.37,0.109    c-0.93,0.271-1.87,0.528-2.812,0.778c-1.061,0.29-2.13,0.57-3.198,0.842c-0.479,0.13-0.96,0.25-1.439,0.358    c-0.471,0.12-0.95,0.229-1.431,0.34c-0.24,0.062-0.47,0.12-0.7,0.171c-1.88,0.431-3.77,0.841-5.659,1.221    c-0.04,0.01-0.068,0.01-0.108,0.021c-0.49,0.102-0.98,0.189-1.472,0.279c-0.618,0.131-1.229,0.24-1.851,0.351    c-0.02,0-0.05,0.012-0.069,0.012c-0.21,0.04-0.42,0.08-0.641,0.108c-0.81,0.149-1.63,0.29-2.46,0.42    c-0.22,0.04-0.45,0.08-0.68,0.109c-0.512,0.08-1.021,0.16-1.54,0.24c-0.512,0.08-1.03,0.16-1.54,0.229    c-0.2,0.029-0.4,0.062-0.602,0.08c-0.688,0.102-1.391,0.189-2.091,0.279c-0.26,0.04-0.52,0.07-0.779,0.101    c-0.898,0.109-1.811,0.222-2.721,0.319c-0.33,0.03-0.647,0.07-0.979,0.101c-0.882,0.092-1.762,0.182-2.65,0.25    c-0.09,0.021-0.189,0.021-0.29,0.03c-0.279,0.029-0.56,0.05-0.84,0.069c-0.07,0.01-0.141,0.01-0.21,0.021    c-0.59,0.05-1.18,0.102-1.78,0.142c-0.14,0.01-0.279,0.021-0.42,0.028c-0.029,0-0.06,0.012-0.09,0.012    c-1.07,0.068-2.141,0.14-3.22,0.198c-0.092,0-0.182,0.012-0.28,0.012c-0.58,0.028-1.16,0.061-1.75,0.08    c-0.271,0.02-0.54,0.02-0.812,0.028c-0.511,0.029-1.021,0.051-1.54,0.062c-0.391,0.01-0.778,0.021-1.17,0.029    c-0.561,0.021-1.119,0.029-1.689,0.029c-0.99,0.021-1.99,0.029-2.99,0.029c-26.5,0-52.16-5.449-76.25-16.181    c-1.42-0.631-2.84-1.301-4.25-1.979c-4.5-8.75-14.19-16.471-19.46-21.609c-5.7-5.569-11.36-11.188-16.63-17.2    c-4.102-4.68-8.73-9.96-10.8-15.81c-0.36-1.03-0.37-0.813-0.38-1.511c0.18-0.102,0.398-0.21,0.698-0.33    c0.4-0.159,2.812-0.521,3.92-0.569c0.262-0.01,0.53-0.01,0.79,0.01c0.16,0.011,0.32,0.021,0.49,0.03    c0.16,0.01,0.33,0.029,0.49,0.05c0.01,0,0.03,0,0.04,0.011c0.148,0.011,0.29,0.029,0.438,0.062c0.512,0.08,1.021,0.199,1.53,0.34    c0.101,0.029,0.21,0.061,0.312,0.09c0.01,0,0.01,0,0.02,0c0.061,0.011,0.12,0.03,0.18,0.051c0.352,0.109,0.71,0.229,1.07,0.369    c0.2,0.07,0.41,0.15,0.62,0.24c0.29,0.109,0.58,0.24,0.87,0.37c0.26,0.108,0.51,0.229,0.77,0.358    c0.521,0.25,1.051,0.529,1.57,0.812c0.29,0.16,0.58,0.319,0.87,0.489c0.58,0.33,1.16,0.681,1.729,1.029    c0.29,0.171,0.57,0.352,0.852,0.529c0.568,0.352,1.13,0.71,1.68,1.07c14.61,9.369,27.812,20.68,42.92,29.33    c11.3,6.479,27.24,12.84,39.05,0.56c0.24-0.25,0.48-0.51,0.7-0.771c0.33-0.369,0.642-0.739,0.92-1.109    c0.01-0.021,0.03-0.03,0.04-0.05c0.16-0.21,0.32-0.42,0.47-0.642c0.58-0.818,1.08-1.648,1.5-2.488    c0.102-0.19,0.2-0.392,0.29-0.591c0.602-1.312,1.021-2.649,1.28-3.989c0.05-0.23,0.09-0.45,0.12-0.682    c0.05-0.311,0.1-0.641,0.13-0.96c0.01-0.141,0.03-0.278,0.04-0.431c0.021-0.229,0.03-0.46,0.04-0.7    c0.01-0.278,0.021-0.56,0.021-0.84c0.01-8.898-5.882-17.84-10.812-24.13c-11.85-15.21-26.87-27.78-41.438-40.149    c-11.312-9.608-22.69-18.479-31.36-29.261c-2.8-3.46-5.4-7.12-7.57-11.06c-0.95-1.71-2.66-5.631-1.63-6.432    c2.771-2.199,8.59-1.278,11.42-0.381c5.16,1.631,9.66,4.841,13.95,7.972c8.84,6.449,16.67,14.141,24.979,21.229    c11.132,9.521,22.842,18.67,35.062,26.75c19.27,12.76,48.399,26.38,72.449,9.67c10.119-7.04,10.079-19.34,5.852-28.6    c-4.62-10.063-13.711-17.32-22.229-23.7c-9.7-7.25-20.16-13.439-30.262-20.141c-12.09-8.029-23.35-17.409-35.028-26.039    c-13.99-10.33-27.74-21.012-39.86-33.57c-5.87-6.07-12.76-14.71-13.44-23.88c-0.71-9.67,11.271-10,17-8.21    c9.66,3,17.922,9.479,25.61,15.66c19.57,15.688,37.84,32.76,58.29,47.42c11.87,8.52,24.69,16.35,38.49,21.64    c8.891,3.41,19.46,6.42,29.5,4.34c19.141-3.949,15.17-27.229,6.46-37.39c-9.45-11.05-20.262-20.8-30.109-31.47    c-5.04-5.461-9.971-11.11-14.24-17.263c-1.43-2.06-3.09-4.75-3.93-6.618c-0.461-1.04-0.841-2.119-1.131-3.222    c0.051-0.06-0.08-2.17-0.189-1.449c0.012-0.079,0.012-0.141,0.012-0.188c0.05-0.03,0.13-0.07,0.3-0.15    c2.141-1.09,5.271-1.238,8.141-1.159c5.97,0.149,11.37,3.812,16.069,6.819c5.59,3.61,11.021,7.42,17.12,10.19    c8.21,3.75,25.141,6.71,33.521-0.79c8.01-7.17,2.3-17.301-2.25-23.271c-13.271-17.438-33.57-26.397-49.801-40.409    c-4.891-4.229-9.859-9.221-11.72-15.801c-1.819-6.397,1.92-9.778,7.818-9.83c14.562-0.09,25.479,8.521,36.352,16.21    c10.67,7.563,26.92,16.03,39.88,5.5c0.021,0.021,0.04,0.04,0.061,0.063C454.618,185.66,462.02,294.31,401.118,370.93z"/>
	</g>
</g>

	<metadata>
		<rdf:RDF xmlns:rdf="http://www.w3.org/1999/02/22-rdf-syntax-ns#" xmlns:rdfs="http://www.w3.org/2000/01/rdf-schema#" xmlns:dc="http://purl.org/dc/elements/1.1/">
			<rdf:Description about="https://iconscout.com/legal#licenses" dc:title="Venus" dc:description="Venus" dc:publisher="Iconscout" dc:date="2017-06-13" dc:format="image/svg+xml" dc:language="en">
				<dc:creator>
					<rdf:Bag>
						<rdf:li>Iconika Store</rdf:li>
					</rdf:Bag>
				</dc:creator>
			</rdf:Description>
		</rdf:RDF>
    </metadata></svg>
