<?xml version="1.0" standalone="no"?>
<!DOCTYPE svg PUBLIC "-//W3C//DTD SVG 20010904//EN"
 "http://www.w3.org/TR/2001/REC-SVG-20010904/DTD/svg10.dtd">
<svg version="1.0" xmlns="http://www.w3.org/2000/svg"
 width="700.000000pt" height="700.000000pt" viewBox="0 0 700.000000 700.000000"
 preserveAspectRatio="xMidYMid meet">
<metadata>
Created by potrace 1.11, written by Peter Selinger 2001-2013
</metadata>
<g transform="translate(0.000000,700.000000) scale(0.100000,-0.100000)"
fill="#000000" stroke="none">
<path d="M3125 6824 c-1042 -122 -1953 -711 -2496 -1612 -253 -421 -408 -892
-459 -1401 -13 -133 -13 -489 0 -622 67 -663 310 -1262 726 -1784 116 -146
391 -418 534 -529 319 -247 657 -430 1010 -546 366 -121 672 -170 1060 -170
389 0 699 50 1062 171 366 121 722 316 1033 565 143 114 398 369 509 509 379
475 614 1015 706 1620 28 178 38 583 21 772 -62 662 -311 1278 -726 1798 -101
127 -381 408 -505 506 -517 411 -1093 651 -1740 724 -170 19 -568 18 -735 -1z
m750 -339 c674 -88 1275 -384 1750 -860 614 -615 934 -1457 877 -2306 -51
-752 -355 -1424 -882 -1949 -521 -520 -1199 -824 -1943 -872 -845 -55 -1694
268 -2302 877 -451 450 -743 1020 -845 1650 -154 940 159 1910 835 2591 511
515 1172 823 1896 884 143 12 469 4 614 -15z"/>
<path d="M3965 5130 c-40 -9 -65 -23 -93 -53 -30 -32 -1033 -2982 -1034 -3042
-4 -153 184 -226 290 -112 31 33 1033 2984 1033 3044 1 106 -95 186 -196 163z"/>
<path d="M2460 4391 c-14 -4 -230 -145 -480 -313 -655 -440 -682 -459 -703
-496 -35 -60 -21 -159 29 -203 52 -45 1126 -758 1157 -768 68 -23 159 17 190
82 25 52 22 127 -6 168 -16 23 -162 127 -470 334 -246 165 -447 302 -447 305
0 3 202 140 448 306 295 199 455 312 470 334 48 72 18 195 -57 235 -37 19 -99
26 -131 16z"/>
<path d="M4435 4385 c-22 -8 -41 -15 -42 -15 -2 0 -16 -19 -33 -42 -39 -54
-43 -137 -7 -188 14 -22 164 -129 447 -319 526 -354 479 -320 457 -334 -444
-293 -886 -599 -904 -626 -42 -63 -25 -175 35 -221 39 -31 99 -44 145 -30 32
9 1104 720 1161 769 50 43 64 143 29 203 -23 40 -34 48 -658 466 -549 368
-549 367 -630 337z"/>
</g>
</svg>
