<svg xmlns="http://www.w3.org/2000/svg" viewBox="0 0 290.959 42" class="svg-inline inlined-svg" role="img">
  <style>.logo {fill:rgba(121, 61, 251, 1.00);}</style>
  <path class="logo" d="M30.924 26.253a23.039 23.039 0 0 1-.142 2.436H5.408c.907 5.182 4.758 8.439 10.335 8.439a10.64 10.64 0 0 0 7.079-2.406l3.228 3.824a15.985 15.985 0 0 1-10.308 3.455C6.484 41.996 0 35.512 0 26.253a22.613 22.613 0 0 1 .142-2.436h25.373c-.906-5.182-4.757-8.441-10.335-8.441-4.417 0-7.759 2.038-9.4 5.465l-4.45-2.575c2.578-4.785 7.59-7.759 13.848-7.759 9.259 0 15.746 6.486 15.746 15.746zM43.141 41.261H37.93V0h5.211zM81.071 26.253a23.032 23.032 0 0 1-.142 2.436H55.556c.907 5.182 4.758 8.439 10.335 8.439a10.64 10.64 0 0 0 7.079-2.406l3.233 3.823A15.985 15.985 0 0 1 65.895 42c-9.259 0-15.746-6.484-15.746-15.746a22.613 22.613 0 0 1 .142-2.436h25.37c-.906-5.181-4.758-8.442-10.335-8.442-4.417 0-7.759 2.038-9.4 5.465l-4.446-2.575c2.576-4.785 7.59-7.759 13.848-7.759 9.259 0 15.743 6.486 15.743 15.746zM129.085 22.09v19.171h-5.211V22.09c0-4.19-2.379-6.711-6.372-6.711s-6.369 2.521-6.369 6.711v19.171h-5.214V22.09c0-4.19-2.379-6.711-6.372-6.711s-6.372 2.521-6.372 6.711v19.171h-5.211V22.09c0-7.022 4.559-11.581 11.581-11.581 3.908 0 6.995 1.275 8.977 3.567 1.983-2.294 5.069-3.567 8.977-3.567 7.027-.002 11.586 4.559 11.586 11.581zM166.903 26.253a23.034 23.034 0 0 1-.142 2.436h-25.376c.907 5.182 4.758 8.439 10.336 8.439a10.64 10.64 0 0 0 7.079-2.406l3.228 3.824a15.985 15.985 0 0 1-10.308 3.455c-9.259 0-15.746-6.484-15.746-15.746a22.6 22.6 0 0 1 .142-2.436h25.376c-.907-5.182-4.757-8.442-10.335-8.442-4.417 0-7.759 2.038-9.4 5.465l-4.446-2.576c2.576-4.785 7.59-7.759 13.848-7.759 9.259 0 15.744 6.486 15.744 15.746zM199.226 22.94v18.321h-5.209V22.94c0-4.87-2.663-7.56-7.5-7.56s-7.5 2.69-7.5 7.56v18.321h-5.218V22.94c0-7.787 4.758-12.431 12.714-12.431s12.713 4.643 12.713 12.431zM214.786 33.389a2.769 2.769 0 0 0 3 3h4.87v4.87h-5.3c-4.728 0-7.787-3.059-7.787-7.787v-17.3h-5.635V11.3h5.635V0h5.211v11.3h7.306v4.87h-7.306zM253.707 11.239v18.327c0 7.787-4.643 12.431-12.43 12.431s-12.431-4.643-12.431-12.431V11.239h5.211v18.327c0 4.87 2.576 7.56 7.221 7.56s7.221-2.69 7.221-7.56V11.239zM276.347 10.507a15.522 15.522 0 0 1 12.4 5.578l-3.879 3.256a10.1 10.1 0 0 0-8.521-3.965c-5.578 0-9.429 3.256-10.335 8.439h24.805a22.591 22.591 0 0 1 .142 2.436c0 9.259-6.484 15.746-15.746 15.746a15.522 15.522 0 0 1-12.4-5.578l3.879-3.256a10.1 10.1 0 0 0 8.524 3.963c5.578 0 9.429-3.256 10.335-8.439h-24.808a22.568 22.568 0 0 1-.142-2.436c.002-9.258 6.486-15.744 15.746-15.744z"></path>
</svg>