<svg width="89" height="40" viewBox="0 0 89 40" fill="none" xmlns="http://www.w3.org/2000/svg">
  <g clip-path="url(#clip0_1311_14880)">
    <path
      d="M2.373 18.2623C2.58352 21.5446 4.74781 24.582 8.45295 24.582C10.7216 24.582 12.6445 23.9542 13.8668 21.6499L15.5429 22.7322C14.1817 25.2805 11.2116 26.6078 8.62718 26.6078C3.03907 26.6078 0 22.5571 0 17.5638C0 12.536 3.70333 8.73022 8.34859 8.73022C12.7497 8.73022 15.9277 12.4661 15.9277 16.691C15.9277 17.2499 15.8578 17.9475 15.8233 18.2623H2.373ZM8.34587 10.7551C5.06269 10.7551 2.93199 13.0595 2.44287 16.2365H13.5846C13.4458 13.3733 11.2452 10.7551 8.34587 10.7551Z"
      fill="white" />
    <path d="M21.1637 26.1886H18.7889V0H21.1637V26.1886Z" fill="white" />
    <path d="M27.975 26.1886H25.6002V0H27.975V26.1886Z" fill="white" />
    <path
      d="M32.4116 5.34261V2.0603H34.7864V5.34261H32.4116ZM32.4116 26.1886V9.14837H34.7864V26.1886H32.4116Z"
      fill="white" />
    <path
      d="M41.5969 9.14845V11.3484C42.8891 9.63744 44.9844 8.73022 47.0806 8.73022C52.0716 8.73022 55.8121 12.7456 55.8121 17.5992C55.8121 22.4528 52.0426 26.6078 47.0452 26.6078C45.1241 26.6078 43.0642 25.8748 41.6005 24.513V35.4794H39.222V9.14845H41.5969ZM41.5969 21.7587C42.8537 23.3999 45.0543 24.4477 47.0107 24.4477C50.7122 24.4477 53.3675 21.375 53.3675 17.7434C53.3675 14.0764 50.7476 10.8994 47.0107 10.8994C44.9145 10.8994 42.5751 12.1214 41.5969 14.1118V21.7587Z"
      fill="white" />
    <path
      d="M66.6399 11.9771C65.6961 11.2432 64.4393 10.7551 63.1825 10.7551C61.854 10.7551 60.1779 11.4882 60.1779 13.0948C60.1779 15.1197 62.3785 15.7829 64.5437 16.691C66.6399 17.5638 68.7007 18.7513 68.7007 21.7887C68.7007 24.7925 65.5573 26.6078 62.6934 26.6078C61.7022 26.6115 60.7211 26.4084 59.8128 26.0117C58.9045 25.6149 58.089 25.0331 57.4183 24.3035L58.8485 22.802C59.8612 23.8843 61.1534 24.582 62.7605 24.582C64.4021 24.582 66.3223 23.7092 66.3223 21.7542C66.3223 19.7991 64.5074 19.1006 62.5854 18.3322C60.3503 17.425 57.9401 16.4116 57.9401 13.3044C57.9401 10.3705 60.3848 8.73022 63.2487 8.73022C65.0301 8.73022 66.6063 9.28816 67.9294 10.3705L66.6399 11.9771Z"
      fill="white" />
    <path
      d="M72.0538 5.34261V2.0603H74.4286V5.34261H72.0538ZM72.0538 26.1886V9.14837H74.4286V26.1886H72.0538Z"
      fill="white" />
    <path
      d="M86.8281 11.9771C85.8843 11.2432 84.6275 10.7551 83.3698 10.7551C82.0421 10.7551 80.3661 11.4882 80.3661 13.0948C80.3661 15.1197 82.5667 15.7829 84.7318 16.691C86.8281 17.5638 88.8889 18.7513 88.8889 21.7887C88.8889 24.7925 85.7446 26.6078 82.8806 26.6078C81.8896 26.6114 80.9087 26.4083 80.0006 26.0115C79.0925 25.6147 78.2771 25.033 77.6065 24.3035L79.0385 22.802C80.0521 23.8843 81.3443 24.582 82.9505 24.582C84.5921 24.582 86.5132 23.7092 86.5132 21.7542C86.5132 19.7992 84.6983 19.1006 82.7763 18.3322C80.5412 17.425 78.1301 16.4116 78.1301 13.3044C78.1301 10.3705 80.5802 8.73022 83.4396 8.73022C85.221 8.73022 86.7972 9.28816 88.1194 10.3705L86.8281 11.9771Z"
      fill="white" />
    <path
      d="M51.4646 39.9973V36.656H47.7703V39.9973H46.3692V32.3767H47.7703V35.5002H51.4646V32.3794H52.8657V40L51.4646 39.9973Z"
      fill="white" />
    <path
      d="M55.1624 39.9973V32.3767H60.0999V33.5298H56.5608V35.5003H60.0999V36.6533H56.5608V38.8406H60.0999V39.9946L55.1624 39.9973Z"
      fill="white" />
    <path
      d="M64.609 32.3794H65.7733L68.7679 40H67.1626L66.609 38.4976H63.5591L62.9937 40H61.4583L64.609 32.3794ZM63.9883 37.3636H66.1916L65.1099 34.436H65.0981L63.9883 37.3636Z"
      fill="white" />
    <path d="M70.3079 39.9973V32.3767H71.7081V38.8406H75.0294V39.9946L70.3079 39.9973Z" fill="white" />
    <path d="M78.3533 33.5325V39.9973H76.9522V33.5325H75.033V32.3794H80.2735V33.5325H78.3533Z"
      fill="white" />
    <path
      d="M86.8625 39.9973V36.656H83.1683V39.9973H81.7672V32.3767H83.1683V35.5002H86.8625V32.3794H88.2636V40L86.8625 39.9973Z"
      fill="white" />
    <path
      d="M7.69703 39.9982C9.80747 39.9982 11.5183 38.2878 11.5183 36.1779C11.5183 34.0681 9.80747 32.3577 7.69703 32.3577C5.58658 32.3577 3.87573 34.0681 3.87573 36.1779C3.87573 38.2878 5.58658 39.9982 7.69703 39.9982Z"
      fill="#81DE80" />
    <path
      d="M19.2317 39.9982C21.3421 39.9982 23.053 38.2878 23.053 36.1779C23.053 34.0681 21.3421 32.3577 19.2317 32.3577C17.1213 32.3577 15.4104 34.0681 15.4104 36.1779C15.4104 38.2878 17.1213 39.9982 19.2317 39.9982Z"
      fill="#3ABAB6" />
    <path
      d="M30.7664 39.9982C32.8768 39.9982 34.5877 38.2878 34.5877 36.1779C34.5877 34.0681 32.8768 32.3577 30.7664 32.3577C28.6559 32.3577 26.9451 34.0681 26.9451 36.1779C26.9451 38.2878 28.6559 39.9982 30.7664 39.9982Z"
      fill="#5687D6" />
  </g>
  <defs>
    <clipPath id="clip0_1311_14880">
      <rect width="88.8889" height="40" fill="white" />
    </clipPath>
  </defs>
</svg>