<?xml version="1.0" encoding="utf-8"?>
<!-- Generator: Adobe Illustrator 16.0.0, SVG Export Plug-In . SVG Version: 6.00 Build 0)  -->
<svg version="1.2" baseProfile="tiny" id="Layer_1" xmlns="http://www.w3.org/2000/svg" xmlns:xlink="http://www.w3.org/1999/xlink"
	 x="0px" y="0px"   viewBox="0 0 280 80" xml:space="preserve">
<g>
	<path fill="#FFFFFF" d="M0.821,2.309v44.407c0.176,7.451,2.581,13.845,7.216,19.066c8.213,9.268,20.648,11.555,22.058,11.789
		l0.177,0.061l0.293,0.06l0.293-0.06c0.528-0.061,13.727-2.112,22.292-11.791c1.936-2.229,3.52-4.635,4.692-7.274
		c1.583-3.578,2.404-7.508,2.465-11.732V2.31L0.821,2.309L0.821,2.309z"/>
	<path fill="#E11A37" d="M4.106,17.15v5.045H9.62 M23.289,19.672l-3.401-14.08h-5.749l8.739,14.257
		C23.056,19.731,23.172,19.731,23.289,19.672L23.289,19.672z M19.945,21.433L12.612,5.594H4.693l14.898,16.133
		C19.711,21.608,19.828,21.491,19.945,21.433z M15.78,22.253L4.106,6.18v8.857l9.914,7.216 M26.984,18.617L26.457,5.535h-4.752
		l4.812,13.082H26.984z M30.563,18.266h0.233l1.994-12.73h-4.458l1.994,12.73H30.563L30.563,18.266z M57.079,22.253v-5.045
		l-5.456,5.045 M38.248,19.79l8.741-14.255h-5.75l-3.401,14.079C38.015,19.731,38.131,19.79,38.248,19.79z M41.65,21.667
		L56.492,5.535h-7.919l-7.334,15.897C41.357,21.491,41.476,21.608,41.65,21.667z M47.165,22.253l9.914-7.216V6.18L45.404,22.253
		 M39.421,5.535H34.67l-0.527,13.023c0.117,0,0.293,0.059,0.411,0.059C34.611,18.675,39.421,5.535,39.421,5.535L39.421,5.535z"/>
	<path fill="#E11A37" d="M58.78,46.716c-0.117,4.048-0.88,7.804-2.347,11.146c-1.114,2.521-2.581,4.811-4.458,6.922
		c-8.272,9.328-20.826,11.205-21.354,11.322h-0.294c-1.349-0.234-13.315-2.404-21.177-11.265
		c-4.399-4.928-6.688-10.971-6.806-18.067V3.833h56.435L58.78,46.716L58.78,46.716z M0.821,2.309v44.407
		c0.176,7.451,2.581,13.845,7.216,19.066c8.213,9.268,20.648,11.555,22.058,11.789l0.177,0.061l0.293,0.06l0.293-0.06
		c0.528-0.061,13.727-2.112,22.292-11.791c1.936-2.229,3.52-4.635,4.692-7.274c1.583-3.578,2.404-7.508,2.465-11.732V2.31
		L0.821,2.309L0.821,2.309z"/>
	<path fill="#E11A37" d="M20.355,41.905h1.584v1.584h-1.584V41.905z M11.732,40.79v0.119h4.518v-5.164l-0.177,0.06
		c-0.293,0.116-0.645,0.176-0.997,0.234h-0.234c-0.763,0-1.524-0.176-2.229-0.469c-0.059-0.059-0.117-0.059-0.234-0.117
		c-0.234-0.118-0.47-0.177-0.763-0.177c-1.057,0-1.878,0.88-1.878,1.877c0,0.646,0.118,0.821,0.881,1.701
		C11.146,39.383,11.498,40.028,11.732,40.79L11.732,40.79z M14.725,41.905v1.584h1.525v-1.584"/>
	<path fill="#E11A37" d="M11.615,33.812c0.469,0,0.938,0.117,1.407,0.293c0.059,0,0.118,0.058,0.177,0.117
		c0.528,0.233,1.056,0.352,1.643,0.352h0.177c0.646-0.059,1.173-0.411,1.524-0.997h0.764c0.293,0.586,0.88,0.938,1.524,0.997h0.175
		c0.529,0,1.058-0.118,1.526-0.294c0.117-0.058,0.234-0.117,0.41-0.175c0.411-0.176,0.821-0.235,1.291-0.235
		c1.818,0,3.344,1.467,3.344,3.344c0,0.879-0.47,1.761-1.231,2.58l-0.06,0.06c-0.469,0.527-0.763,1.174-0.88,1.818
		c0,0.117,0,0.234-0.059,0.353v0.41c0,0.412,0.116,0.821,0.293,1.174v0.822H10.207v-0.765c0.176-0.469,0.293-0.938,0.293-1.467
		c0-0.176,0-0.352-0.059-0.527c-0.117-0.705-0.41-1.35-0.88-1.878l-0.06-0.057c-0.82-0.822-1.23-1.761-1.23-2.582
		C8.271,35.276,9.797,33.751,11.615,33.812L11.615,33.812z M16.896,30.643c0.156,0,0.306,0.029,0.449,0.089
		c0.143,0.059,0.271,0.145,0.381,0.255c0.108,0.109,0.193,0.236,0.254,0.38c0.06,0.145,0.09,0.294,0.09,0.45
		c0,0.645-0.528,1.173-1.174,1.173s-1.173-0.528-1.173-1.173C15.723,31.17,16.25,30.643,16.896,30.643z M22.762,52.815
		c-0.881,0-1.644-0.646-1.644-1.992c0-1.996,1.291-2.875,2.522-2.875c0.353,0,0.587,0.117,0.704,0.117l-0.06,0.176
		c-0.117-0.059-0.233-0.059-0.469-0.059c-0.998,0-1.761,0.819-1.761,2.463c0,1.057,0.294,1.819,0.938,1.819
		c0.469,0,0.646-0.528,0.646-0.938c0-0.703-0.41-1.351-0.997-1.351h-0.177V50.06c0.177-0.117,0.41-0.293,0.821-0.293
		c0.587,0,1.173,0.526,1.173,1.231C24.462,52.231,23.758,52.815,22.762,52.815L22.762,52.815z M18.714,52.815
		c-0.881,0-1.643-0.646-1.643-1.992c0-1.996,1.29-2.875,2.521-2.875c0.354,0,0.588,0.117,0.704,0.117l-0.059,0.176
		c-0.117-0.059-0.234-0.059-0.469-0.059c-0.998,0-1.761,0.819-1.761,2.463c0,1.057,0.294,1.819,0.938,1.819
		c0.469,0,0.645-0.528,0.645-0.938c0-0.703-0.409-1.351-0.996-1.351h-0.177V50.06c0.177-0.117,0.411-0.293,0.821-0.293
		c0.587,0,1.173,0.526,1.173,1.231C20.414,52.231,19.652,52.815,18.714,52.815L18.714,52.815z M15.136,50.882
		c-0.353,0.88-0.471,0.938-0.704,1.994l-0.06,0.06c-0.352-0.119-0.527-0.295-0.763-0.529c0.059-0.527,0.998-1.523,1.643-2.521
		c0.354-0.527,0.411-0.82,0.471-1.058h-1.408c-0.821,0-0.763,0-0.997,0.588l-0.176-0.059c0.059-0.41,0.116-0.822,0.293-1.232h2.934
		l0.06,0.06C16.309,48.946,15.956,49.296,15.136,50.882L15.136,50.882z M10.207,45.425v-0.469h13.375v0.469H10.207z M23.582,45.895
		v0.471H10.207v-0.471H23.582z M12.144,52.7H9.621v-0.176l0.47-0.06c0.293-0.061,0.293-0.116,0.293-0.881v-1.936
		c0-0.881-0.059-0.939-0.176-0.939c-0.059,0-0.176,0-0.233,0.06l-0.471,0.059l-0.059-0.176c0.293-0.117,1.643-0.586,1.76-0.646
		l0.117,0.06v3.52c0,0.82,0,0.881,0.353,0.881l0.47,0.06L12.144,52.7L12.144,52.7z M4.106,46.774
		c0.176,6.629,2.288,12.32,6.394,16.895c6.513,7.334,16.133,9.855,19.242,10.502V23.955H4.106V46.774z"/>
	<path fill="#E11A37" d="M39.715,36.157c0.353,0,0.587-0.059,0.821-0.117s0.469-0.118,0.763-0.118c0.47,0,0.938,0.118,1.407,0.294
		v-0.587c-0.469-0.175-0.938-0.293-1.407-0.233c-0.353,0-0.587,0.059-0.82,0.117c-0.235,0.059-0.411,0.116-0.704,0.116
		c-0.411,0.06-0.88,0-1.291-0.116v0.586C38.835,36.157,39.245,36.215,39.715,36.157L39.715,36.157z M39.715,39.207
		c0.353,0,0.587-0.059,0.821-0.117s0.469-0.116,0.763-0.116c0.47,0,0.938,0.116,1.407,0.293v-0.586
		c-0.469-0.177-0.938-0.235-1.407-0.235c-0.353,0-0.587,0.059-0.82,0.117c-0.235,0.059-0.411,0.118-0.704,0.118
		c-0.411,0.059-0.88,0-1.291-0.118v0.587C38.835,39.207,39.305,39.207,39.715,39.207L39.715,39.207z M39.715,37.683
		c0.353,0,0.587-0.06,0.821-0.118s0.469-0.117,0.763-0.117c0.47,0,0.938,0.117,1.407,0.293v-0.586
		c-0.469-0.176-0.938-0.293-1.407-0.235c-0.353,0-0.587,0.06-0.82,0.118c-0.235,0.06-0.411,0.117-0.704,0.117
		c-0.411,0.059-0.88,0-1.291-0.117v0.586C38.835,37.683,39.305,37.683,39.715,37.683L39.715,37.683z M39.715,40.731
		c0.353,0,0.587-0.06,0.821-0.117c0.234-0.057,0.469-0.117,0.763-0.117c0.47,0,0.938,0.117,1.407,0.292v-0.586
		c-0.469-0.176-0.938-0.293-1.407-0.234c-0.353,0-0.587,0.059-0.82,0.117c-0.235,0.06-0.411,0.117-0.704,0.117
		c-0.411,0.06-0.88,0-1.291-0.117v0.586C38.835,40.731,39.245,40.731,39.715,40.731L39.715,40.731z M39.715,42.198
		c0.353,0,0.587-0.059,0.821-0.117s0.469-0.117,0.763-0.117c0.47,0,0.938,0.117,1.407,0.293v-0.586
		c-0.469-0.176-0.938-0.233-1.407-0.233c-0.353,0-0.587,0.059-0.82,0.117c-0.235,0.059-0.411,0.116-0.704,0.116
		c-0.411,0.06-0.88,0-1.291-0.116v0.586C38.835,42.257,39.305,42.257,39.715,42.198L39.715,42.198z M39.715,43.725
		c0.353,0,0.587-0.06,0.821-0.117c0.234-0.06,0.469-0.117,0.763-0.117c0.47,0,0.938,0.117,1.407,0.293v-0.586
		c-0.469-0.176-0.938-0.234-1.407-0.234c-0.353,0-0.587,0.06-0.82,0.117c-0.235,0.06-0.411,0.117-0.704,0.117
		c-0.411,0.059-0.88,0-1.291-0.117v0.586C38.835,43.725,39.305,43.782,39.715,43.725L39.715,43.725z M17.54,41.905h1.584v1.584
		H17.54V41.905z M22.058,40.79c0.234-0.762,0.587-1.407,1.114-1.994c0.117-0.116,0.881-1.056,0.881-1.7
		c0-1.057-0.881-1.877-1.878-1.877c-0.234,0-0.47,0.058-0.703,0.116c-0.06,0-0.117,0.06-0.235,0.118l-0.176,0.117
		c-0.646,0.293-1.35,0.41-2.111,0.41h-0.294c-0.352,0-0.645-0.117-0.997-0.235l-0.176-0.058v5.222h4.458L22.058,40.79z
		 M11.851,41.905h1.584v1.584h-1.584V41.905z"/>
	<path fill="#E11A37" d="M39.892,45.837c1.407-0.235,2.64-0.118,3.637,0.47v-0.47l-0.117-0.061c-0.233-0.176-0.88-0.527-2.111-0.586
		h-0.41c-0.293,0-0.587,0.059-0.938,0.117c-0.821,0.176-1.76,0.116-2.874-0.117l-0.177-0.06V34.807
		c-0.176-0.059-0.353-0.059-0.469-0.117v10.793C37.778,45.895,38.952,46.014,39.892,45.837L39.892,45.837z"/>
	<path fill="#E11A37" d="M48.045,42.081c0.234,0.06,0.47,0.117,0.821,0.117c0.469,0.059,0.88,0,1.35-0.059v-0.586
		c-0.47,0.116-0.881,0.116-1.291,0.116c-0.293,0-0.527-0.059-0.703-0.116c-0.234-0.06-0.47-0.117-0.821-0.117
		c-0.469,0-0.938,0.059-1.408,0.233v0.586c0.47-0.176,0.939-0.293,1.408-0.293C47.575,42.022,47.812,42.022,48.045,42.081
		L48.045,42.081z M39.892,46.833c1.407-0.233,2.64-0.117,3.637,0.472v-0.472l-0.059-0.059l-0.06-0.06
		c-0.938-0.526-2.053-0.702-3.402-0.469c-1.056,0.176-2.347,0.06-3.871-0.41l-0.177-0.061V35.1
		c-0.176-0.059-0.293-0.117-0.469-0.177v11.206C37.251,46.833,38.719,47.009,39.892,46.833L39.892,46.833z"/>
	<path fill="#E11A37" d="M48.69,45.837c0.938,0.177,2.111,0.058,3.461-0.354V34.69c-0.176,0.059-0.354,0.117-0.47,0.117v10.266
		l-0.177,0.059c-1.113,0.234-2.053,0.293-2.874,0.117c-0.294-0.059-0.646-0.117-0.938-0.117h-0.41
		c-1.173,0.06-1.818,0.41-2.112,0.587l-0.116,0.059v0.471C46.052,45.719,47.282,45.542,48.69,45.837L48.69,45.837z"/>
	<path fill="#E11A37" d="M48.045,40.559c0.234,0.057,0.47,0.114,0.821,0.114c0.469,0.06,0.88,0,1.35-0.059v-0.586
		c-0.47,0.117-0.881,0.117-1.291,0.117c-0.293,0-0.527-0.06-0.703-0.117c-0.234-0.059-0.47-0.117-0.821-0.117
		c-0.469,0-0.938,0.059-1.408,0.234v0.586c0.47-0.174,0.939-0.292,1.408-0.292C47.575,40.498,47.812,40.559,48.045,40.559
		L48.045,40.559z"/>
	<path fill="#E11A37" d="M34.963,34.279l0.293,0.118c0.235,0.058,0.411,0.176,0.646,0.234v-0.587l0.294,0.117
		c0.234,0.06,0.469,0.117,0.645,0.176v-0.586l0.295,0.06c0.763,0.176,1.523,0.233,2.11,0.233c0.176,0,0.411-0.059,0.587-0.059
		c0.47-0.059,0.88-0.118,1.29-0.118c1.032-0.005,1.972,0.288,2.816,0.88v12.965h-0.704c-0.938-0.528-2.053-0.646-3.344-0.409
		c-1.291,0.231-2.874,0-4.812-0.765l-0.059-0.059L34.963,34.279L34.963,34.279z M44.761,50.764l1.113,0.176l-0.82,0.764l0.177,1.113
		l-0.998-0.527l-0.997,0.527l0.176-1.113l-0.821-0.764l1.114-0.176l0.47-0.996L44.761,50.764L44.761,50.764z M44.583,44.194v-9.445
		c0.847-0.593,1.784-0.886,2.816-0.88c0.411,0,0.88,0.06,1.291,0.118c0.176,0,0.352,0.059,0.526,0.059
		c0.646,0.06,1.351-0.059,2.112-0.233l0.293-0.06v0.586l0.646-0.176l0.293-0.117v0.587c0.176-0.059,0.411-0.117,0.646-0.234
		l0.353-0.118v12.203l-0.177,0.059c-1.936,0.703-3.577,0.996-4.81,0.765c-1.291-0.236-2.464-0.119-3.344,0.409h-0.705L44.583,44.194
		z M49.98,51.469l-0.997-0.529l-0.997,0.529l0.176-1.115l-0.763-0.763l1.114-0.176l0.47-0.998l0.47,0.998l1.114,0.176l-0.821,0.763
		L49.98,51.469L49.98,51.469z M40.536,51.469l-0.997-0.529l-0.998,0.529l0.178-1.115l-0.764-0.763l1.114-0.176l0.47-0.998
		l0.469,0.998l1.114,0.176l-0.762,0.763L40.536,51.469L40.536,51.469z M31.443,74.171c3.109-0.646,12.729-3.168,19.241-10.502
		c4.105-4.573,6.218-10.323,6.395-16.895v-22.82H31.443V74.171z"/>
	<path fill="#E11A37" d="M48.69,46.833c1.173,0.234,2.64,0,4.398-0.645V34.982c-0.176,0.059-0.353,0.117-0.47,0.176v10.678
		l-0.176,0.058c-1.525,0.471-2.815,0.588-3.871,0.412c-1.35-0.234-2.522-0.117-3.403,0.469c-0.059,0-0.059,0.059-0.059,0.059
		l-0.059,0.06v0.352C46.052,46.716,47.282,46.54,48.69,46.833L48.69,46.833z"/>
	<path fill="#E11A37" d="M268.853,31.934c-2.582-1.525-4.635-3.051-4.635-5.866c0-3.228,2.404-5.221,5.221-5.221
		c5.397,0,6.16,4.165,6.629,6.511h1.174c-0.117-1.408-0.233-4.869-0.471-6.57c-1.23-0.762-3.637-1.524-6.568-1.524
		c-5.045,0-9.914,2.404-9.914,8.271c0,3.578,2.521,6.512,5.221,8.037l3.051,1.642c3.696,1.644,6.629,4.048,6.629,7.511
		c0,3.694-2.404,5.866-5.748,5.866c-6.512,0-8.272-5.69-8.801-9.094l-1.523,0.41c0.527,3.285,1.056,6.57,1.523,8.389
		c1.467,0.879,3.756,1.877,7.51,1.877c5.045,0,11.029-2.463,11.029-8.916c0-5.749-3.873-7.743-7.687-9.854L268.853,31.934
		L268.853,31.934z M230.429,51.469h11.555v-1.058l-1.699-0.117c-1.819-0.176-1.819-0.41-1.819-6.276v-6.276h1.761
		c0.998,0,2.17,0,2.934,0.646c0.587,0.527,1.701,2.346,2.934,4.692l1.877,3.695c1.408,2.641,3.637,4.752,6.746,4.752h3.695v-1.057
		c-1.057,0-1.936-0.177-2.404-0.47c-1.173-0.645-3.285-3.461-5.279-7.098c-1.291-2.289-2.875-5.339-3.578-6.688
		c2.64-1.231,6.57-3.872,6.57-8.33c0-7.273-6.396-7.919-10.912-7.919h-12.438v0.997l1.7,0.117c1.877,0.176,1.877,0.411,1.877,6.277
		v16.601c0,5.81,0,6.043-1.877,6.277l-1.7,0.117L230.429,51.469L230.429,51.469z M238.405,21.96
		c0.938-0.177,1.936-0.411,2.934-0.411c3.696,0,7.393,1.701,7.393,7.274c0,5.397-3.639,7.509-7.627,7.509h-2.698L238.405,21.96
		L238.405,21.96z M203.267,51.469h21.822c0.646-2.582,1.174-4.929,1.585-7.921l-1.174-0.176c-0.938,3.933-1.407,6.806-9.034,6.806
		c-1.701,0-3.461-0.294-5.162-0.646V35.806h4.225c3.695,0,4.574,0.059,4.869,1.994l0.233,1.644h1.231v-8.624h-1.231l-0.233,1.643
		c-0.295,1.937-1.115,1.994-4.869,1.994h-4.225V21.374h3.932c6.744,0,6.805,0.704,7.859,5.809l1.174-0.177
		c0-0.41-0.234-5.925-0.41-6.979h-20.532v0.997l1.7,0.118c1.877,0.176,1.877,0.411,1.877,6.275v16.602c0,5.809,0,6.043-1.877,6.276
		l-1.7,0.117L203.267,51.469L203.267,51.469z M197.692,45.19c0-4.633,0-4.869,0.881-5.045l1.701-0.117V39.03h-12.086v0.998
		l1.703,0.117c3.344,0.176,3.344,0.412,3.344,6.276V50c-1.644,0.41-3.873,0.646-5.573,0.646c-9.327,0-13.492-7.566-13.492-15.663
		c0-8.917,4.929-14.079,12.729-14.079c8.154,0,8.8,5.808,9.27,7.743l1.29-0.293c-0.235-2.348-0.469-5.045-0.763-7.04
		c-1.232-0.764-4.868-1.937-9.738-1.937c-7.509,0-17.773,3.813-17.773,16.542c0,12.145,8.563,16.367,18.186,16.367
		c5.104,0,8.74-1.35,10.441-1.877C197.812,50.294,197.692,46.657,197.692,45.19 M148.006,51.469h13.2v-1.058l-1.702-0.117
		c-2.64-0.176-2.64-0.41-2.64-6.276V21.374h2.464c6.746,0,6.805,0.704,7.86,6.277h1.174c0-0.176-0.234-6.57-0.411-7.567h-26.574
		c-0.176,1.057-0.41,7.393-0.41,7.567h1.114c1.057-5.514,1.115-6.277,7.859-6.277h2.465v22.702c0,5.81,0,6.043-2.639,6.277
		l-1.762,0.117L148.006,51.469L148.006,51.469z M135.219,51.938l1.407-0.41V27.476c0-5.809,0-6.042,1.877-6.277l1.701-0.117v-1.056
		h-11.615v1.056l1.701,0.117c1.877,0.176,1.877,0.411,1.877,6.277v19.357c-0.704,0.881-3.694,3.813-8.623,3.813
		c-7.392,0-8.563-4.517-8.563-11.38V27.416c0-5.808,0-6.042,1.877-6.275l1.701-0.118v-1.057h-11.615v0.997l1.701,0.117
		c1.877,0.176,1.877,0.411,1.877,6.277V39.97c0,6.512,0.82,12.143,10.677,12.143c6.336,0,10.325-2.99,10.97-2.99
		c0.705,0,1.115,0.646,1.761,1.349L135.219,51.938L135.219,51.938z M48.045,39.09c0.234,0.06,0.47,0.117,0.821,0.117
		c0.469,0.06,0.88,0,1.35-0.059v-0.587c-0.41,0.118-0.881,0.118-1.291,0.118c-0.293,0-0.527-0.06-0.703-0.118
		c-0.293-0.117-0.528-0.176-0.881-0.176c-0.469,0-0.938,0.059-1.407,0.234v0.586c0.47-0.176,0.938-0.293,1.407-0.293
		C47.634,38.974,47.812,39.031,48.045,39.09L48.045,39.09z M48.045,36.04c0.234,0.059,0.47,0.117,0.821,0.117
		c0.469,0.059,0.88,0,1.35-0.059v-0.586c-0.47,0.116-0.881,0.116-1.291,0.116c-0.293,0-0.527-0.058-0.703-0.116
		c-0.234-0.059-0.47-0.117-0.821-0.117c-0.469,0-0.938,0.059-1.408,0.233v0.587c0.47-0.176,0.939-0.294,1.408-0.294
		C47.575,35.921,47.812,35.98,48.045,36.04L48.045,36.04z M48.045,37.564c0.234,0.059,0.47,0.118,0.821,0.118
		c0.469,0.058,0.88,0,1.35-0.06v-0.586c-0.47,0.117-0.881,0.117-1.291,0.117c-0.293,0-0.527-0.059-0.703-0.117
		c-0.234-0.059-0.47-0.118-0.821-0.118c-0.469,0-0.938,0.06-1.408,0.235v0.586c0.47-0.176,0.939-0.293,1.408-0.293
		C47.575,37.447,47.812,37.506,48.045,37.564L48.045,37.564z M48.045,43.606c0.234,0.059,0.47,0.117,0.821,0.117
		c0.469,0.059,0.88,0,1.35-0.06v-0.586c-0.47,0.117-0.881,0.117-1.291,0.117c-0.293,0-0.527-0.059-0.703-0.117
		c-0.234-0.059-0.47-0.117-0.821-0.117c-0.469,0-0.938,0.06-1.408,0.234v0.586c0.47-0.176,0.939-0.293,1.408-0.293
		C47.575,43.548,47.812,43.606,48.045,43.606L48.045,43.606z"/>
	<path fill="#E11A37" d="M96.09,33.34c0.527,3.052,4.752,10.793,6.395,13.668c3.638,6.746,13.022,20.355,20.004,19.945h0.821v1.115
		l-1.231,0.059c-9.914,0.41-18.713-10.616-23.876-19.477c-2.111-3.578-4.104-7.742-5.925-11.498
		c-0.469-0.997-0.997-1.583-1.644-1.995c-0.996-0.527-2.229-0.527-3.284-0.527h-3.345v7.921c0,1.465-0.116,5.104,0.293,6.512
		c0.294,1.113,0.998,1.289,2.112,1.406l1.937,0.176v0.881H74.795v-0.881l1.938-0.176c1.173-0.117,1.817-0.234,2.17-1.406
		c0.411-1.408,0.293-5.047,0.293-6.512V22.076c0-1.467,0.118-5.104-0.293-6.512c-0.353-1.115-0.997-1.291-2.17-1.408l-1.938-0.176
		v-0.88h9.21c8.097,0,19.066-1.173,19.066,10.266c0,4.634-3.169,7.626-6.981,9.503V33.34 M83.946,33.34
		c1.467,0.06,3.051-0.058,4.518-0.058c5.633,0,9.094-3.051,9.094-8.682c0-6.16-3.521-9.914-9.738-9.914
		c-1.291,0-2.581,0.233-3.813,0.527L83.946,33.34L83.946,33.34z"/>
</g>
</svg>
