<svg height='100px' width='100px' fill="#000000" xmlns="http://www.w3.org/2000/svg"
  viewBox="0 0 100 100" x="0px" y="0px">
  <title>people_helloMan</title>
  <path
    d="M85.17,17.49A8.47,8.47,0,0,0,78.75,12c-1.23-.29-1.76,1.53-.52,1.81a6.55,6.55,0,0,1,5,4.21C83.67,19.14,85.57,18.65,85.17,17.49Z"
    fill-rule="evenodd"></path>
  <path
    d="M80.78,8.12c-1.26-.1-1.25,1.79,0,1.89,2.82.22,6.29,2.45,6.56,5.34.11,1.2,2.08,1.21,2,0C88.93,11.36,84.75,8.44,80.78,8.12Z"
    fill-rule="evenodd"></path>
  <path
    d="M65,19.55a8,8,0,0,0,.39,8.26c.65,1,2.37.12,1.72-.92a6.09,6.09,0,0,1-.4-6.4C67.23,19.42,65.53,18.46,65,19.55Z"
    fill-rule="evenodd"></path>
  <path
    d="M61.05,29.11c.82.94,2.21-.39,1.41-1.32-1.81-2.08-2.58-6-.62-8.22.81-.92-.56-2.27-1.38-1.34C57.75,21.28,58.51,26.18,61.05,29.11Z"
    fill-rule="evenodd"></path>
  <path
    d="M85.48,36.07c-.16-5.74-2.59-22.42-12.43-17.26-5,2.59,2.3,7.85,1.34,18.65-.37,4.21-2,9.27-6.09,15.35-3,4.47-9.68,6.67-16.42,7.81a21.27,21.27,0,0,0-5-.86,16.07,16.07,0,0,1-9.28,2.35,16,16,0,0,1-9.27-2.35c-3.07.08-8.44,1.52-10.7,3.86-5.79,6-7.1,17.78-7.36,27.34H60.43a97.25,97.25,0,0,0-1.85-18.11A29.43,29.43,0,0,0,77.13,61.38,41.46,41.46,0,0,0,85.48,36.07Z"
    fill-rule="evenodd"></path>
  <path
    d="M39.39,58c7.15-.62,11.52-5.44,12.49-11.06,1.68-9.7.74-14.24.29-15.88-1.76-6.4-8.88-10.8-16-10.16s-13.39,6.18-14,12.79c-.15,1.69-.29,6.33,3,15.58C27.1,54.67,32.25,58.66,39.39,58Z"
    fill-rule="evenodd"></path>
</svg>